<svg width="48" height="48" fill="none" xmlns="http://www.w3.org/2000/svg"><rect x=".5" y="-.5" width="47" height="47" rx="2" transform="matrix(-1 0 0 1 48 1)" fill="#fff" stroke="#BDBDBD"/><path d="M28.817 19.559L23.69 24.5l5.126 4.941a.562.562 0 01.183.419c0 .161-.061.3-.183.419l-1.603 1.544a.605.605 0 01-.434.177.604.604 0 01-.434-.177l-7.163-6.904A.562.562 0 0119 24.5c0-.161.061-.3.183-.419l7.163-6.904A.604.604 0 0126.78 17c.167 0 .312.059.434.177l1.603 1.544a.562.562 0 01.183.42c0 .16-.061.3-.183.418z" fill="#BDBDBD"/></svg>