<svg width="1920" height="350" fill="none" xmlns="http://www.w3.org/2000/svg"><g clip-path="url(#clip0)"><path d="M1905.62 3.2c-3.19-1.5-6.79-3.2-13.68-3.2s-10.48 1.7-13.68 3.2c-2.99 1.4-5.79 2.8-11.58 2.8s-8.59-1.3-11.59-2.8c-3.19-1.5-6.79-3.2-13.68-3.2s-10.48 1.7-13.68 3.2c-2.99 1.4-5.79 2.8-11.58 2.8s-8.59-1.3-11.58-2.8c-3.2-1.5-6.79-3.2-13.68-3.2s-10.49 1.7-13.68 3.2c-3 1.4-5.79 2.8-11.59 2.8-5.79 0-8.58-1.3-11.58-2.8-3.19-1.5-6.79-3.2-13.68-3.2s-10.48 1.7-13.68 3.2c-2.99 1.4-5.79 2.8-11.58 2.8s-8.59-1.3-11.58-2.8c-3.2-1.5-6.79-3.2-13.68-3.2s-10.49 1.7-13.68 3.2c-3 1.4-5.8 2.8-11.59 2.8s-8.59-1.3-11.58-2.8c-3.2-1.5-6.79-3.2-13.68-3.2s-10.49 1.7-13.68 3.2c-3 1.4-5.79 2.8-11.58 2.8-5.8 0-8.59-1.3-11.59-2.8-3.19-1.5-6.79-3.2-13.68-3.2s-10.48 1.7-13.68 3.2c-2.99 1.4-5.79 2.8-11.58 2.8s-8.59-1.3-11.58-2.8c-3.2-1.5-6.79-3.2-13.68-3.2s-10.49 1.7-13.68 3.2c-3 1.4-5.79 2.8-11.59 2.8-5.79 0-8.58-1.3-11.58-2.8-3.2-1.5-6.79-3.2-13.68-3.2s-10.48 1.7-13.68 3.2c-3 1.4-5.79 2.8-11.58 2.8s-8.59-1.3-11.59-2.8c-3.19-1.5-6.79-3.2-13.68-3.2s-10.48 1.7-13.68 3.2c-2.99 1.4-5.79 2.8-11.58 2.8s-8.59-1.3-11.58-2.8c-3.2-1.5-6.79-3.2-13.68-3.2s-10.49 1.7-13.68 3.2c-3 1.4-5.79 2.8-11.59 2.8-5.79 0-8.58-1.3-11.58-2.8-3.19-1.5-6.79-3.2-13.68-3.2s-10.48 1.7-13.68 3.2c-2.99 1.4-5.79 2.8-11.58 2.8s-8.59-1.3-11.58-2.8c-3.2-1.5-6.79-3.2-13.68-3.2s-10.49 1.7-13.68 3.2c-3 1.4-5.8 2.8-11.59 2.8s-8.59-1.3-11.58-2.8c-3.2-1.5-6.79-3.2-13.68-3.2s-10.49 1.7-13.68 3.2c-3 1.4-5.79 2.8-11.58 2.8-5.8 0-8.59-1.3-11.59-2.8-3.19-1.5-6.79-3.2-13.68-3.2s-10.48 1.7-13.68 3.2c-2.99 1.4-5.79 2.8-11.58 2.8s-8.59-1.3-11.58-2.8c-3.2-1.5-6.79-3.2-13.68-3.2s-10.49 1.7-13.68 3.2c-3 1.4-5.8 2.8-11.59 2.8s-8.58-1.3-11.58-2.8c-3.2-1.5-6.79-3.2-13.68-3.2s-10.48 1.7-13.68 3.2c-3 1.4-5.79 2.8-11.58 2.8s-8.59-1.3-11.59-2.8c-3.19-1.5-6.79-3.2-13.68-3.2s-10.48 1.7-13.68 3.2c-2.99 1.4-5.79 2.8-11.58 2.8s-8.587-1.3-11.583-2.8c-3.195-1.5-6.79-3.2-13.68-3.2s-10.485 1.7-13.68 3.2c-2.995 1.4-5.791 2.8-11.583 2.8s-8.587-1.3-11.583-2.8c-3.195-1.5-6.79-3.2-13.68-3.2s-9.087 1.7-12.282 3.2c-2.996 1.4-5.792 2.8-11.583 2.8-5.792 0-8.588-1.3-11.583-2.8-3.096-1.5-6.791-3.2-13.581-3.2-6.89 0-10.484 1.7-13.68 3.2-2.995 1.4-5.791 2.8-11.583 2.8-5.791 0-8.587-1.3-11.583-2.8-3.195-1.5-6.79-3.2-13.68-3.2s-10.485 1.7-13.68 3.2C815.71 4.6 812.914 6 807.123 6c-5.792 0-8.588-1.3-11.583-2.8-3.096-1.5-6.69-3.2-13.58-3.2s-10.485 1.7-13.68 3.2c-2.996 1.4-5.792 2.8-11.584 2.8-5.791 0-8.587-1.3-11.583-2.8-3.195-1.5-6.79-3.2-13.68-3.2s-10.484 1.7-13.68 3.2C714.758 4.6 711.962 6 706.17 6c-5.791 0-8.587-1.3-11.583-2.8-3.195-1.5-6.79-3.2-13.68-3.2s-10.485 1.7-13.68 3.2c-2.996 1.4-5.792 2.8-11.583 2.8-5.792 0-8.588-1.3-11.583-2.8C641.065 1.7 637.47 0 630.58 0s-10.484 1.7-13.68 3.2c-2.995 1.4-5.791 2.8-11.583 2.8-5.791 0-8.587-1.3-11.583-2.8-3.095-1.5-6.69-3.2-13.58-3.2s-10.485 1.7-13.68 3.2c-2.996 1.4-5.792 2.8-11.583 2.8-5.792 0-8.588-1.3-11.583-2.8-3.096-1.5-6.691-3.2-13.581-3.2-6.889 0-10.484 1.7-13.68 3.2-2.995 1.4-5.791 2.8-11.583 2.8-5.791 0-8.587-1.3-11.583-2.8-3.095-1.5-6.79-3.2-13.58-3.2-6.89 0-10.485 1.7-13.68 3.2-2.996 1.4-5.792 2.8-11.583 2.8-5.792 0-8.588-1.3-11.583-2.8-3.196-1.5-6.79-3.2-13.68-3.2s-10.485 1.7-13.68 3.2c-2.996 1.4-5.792 2.8-11.583 2.8-5.792 0-8.588-1.3-11.584-2.8-3.195-1.5-6.79-3.2-13.68-3.2s-10.484 1.7-13.68 3.2c-2.995 1.4-5.791 2.8-11.583 2.8-5.791 0-8.587-1.3-11.583-2.8-3.195-1.5-6.79-3.2-13.68-3.2s-10.485 1.7-13.68 3.2C311.046 4.6 308.25 6 302.459 6c-5.792 0-8.588-1.3-11.583-2.8-3.196-1.5-6.79-3.2-13.68-3.2s-10.485 1.7-13.68 3.2C260.52 4.6 257.724 6 251.933 6c-5.792 0-8.588-1.3-11.584-2.8-3.195-1.5-6.79-3.2-13.68-3.2s-10.484 1.7-13.68 3.2c-2.995 1.4-5.791 2.8-11.583 2.8-5.791 0-8.587-1.3-11.583-2.8-3.195-1.5-6.79-3.2-13.68-3.2s-10.485 1.7-13.68 3.2C159.467 4.6 156.672 6 150.88 6s-8.588-1.3-11.583-2.8c-3.195-1.5-6.79-3.2-13.68-3.2s-10.485 1.7-13.68 3.2c-2.996 1.4-5.792 2.8-11.583 2.8-5.792 0-8.588-1.3-11.584-2.8C86.174 1.7 82.58 0 75.69 0S65.205 1.7 62.01 3.2C59.014 4.7 56.218 6 50.426 6c-5.691 0-8.487-1.3-11.483-2.8-3.195-1.5-6.89-3.2-13.68-3.2-6.89 0-10.485 1.7-13.68 3.2C8.587 4.7 5.792 6 0 6v334c5.792 0 8.587 1.3 11.583 2.8 3.195 1.5 6.79 3.2 13.68 3.2s10.485-1.7 13.68-3.2c2.996-1.4 5.792-2.8 11.583-2.8 5.792 0 8.588 1.3 11.583 2.8 3.196 1.5 6.79 3.2 13.68 3.2s10.485-1.7 13.68-3.2c2.996-1.4 5.792-2.8 11.584-2.8 5.791 0 8.587 1.3 11.583 2.8 3.195 1.5 6.79 3.2 13.68 3.2s10.484-1.7 13.68-3.2c2.995-1.4 5.791-2.8 11.583-2.8 5.791 0 8.587 1.3 11.583 2.8 3.195 1.5 6.79 3.2 13.68 3.2s10.485-1.7 13.68-3.2c2.996-1.4 5.792-2.8 11.583-2.8 5.792 0 8.588 1.3 11.583 2.8 3.196 1.5 6.79 3.2 13.68 3.2s10.485-1.7 13.68-3.2c2.996-1.4 5.792-2.8 11.584-2.8 5.791 0 8.587 1.3 11.583 2.8 3.195 1.5 6.79 3.2 13.68 3.2s10.484-1.7 13.68-3.2c2.995-1.4 5.791-2.8 11.583-2.8 5.791 0 8.587 1.3 11.583 2.8 3.195 1.5 6.79 3.2 13.68 3.2s10.485-1.7 13.68-3.2c2.996-1.4 5.792-2.8 11.583-2.8 5.792 0 8.588 1.3 11.583 2.8 3.196 1.5 6.79 3.2 13.68 3.2s10.485-1.7 13.68-3.2c2.996-1.4 5.792-2.8 11.583-2.8 5.792 0 8.588 1.3 11.584 2.8 3.195 1.5 6.79 3.2 13.68 3.2s10.484-1.7 13.68-3.2c2.995-1.4 5.791-2.8 11.583-2.8 5.791 0 8.587 1.3 11.583 2.8 3.195 1.5 6.79 3.2 13.68 3.2s10.485-1.7 13.68-3.2c2.996-1.4 5.792-2.8 11.583-2.8 5.792 0 8.588 1.3 11.583 2.8 3.196 1.5 6.79 3.2 13.68 3.2s10.485-1.7 13.68-3.2c2.996-1.4 5.792-2.8 11.583-2.8 5.792 0 8.588 1.3 11.584 2.8 3.195 1.5 6.79 3.2 13.68 3.2s10.484-1.7 13.68-3.2c2.995-1.4 5.791-2.8 11.583-2.8 5.791 0 8.587 1.3 11.583 2.8 3.195 1.5 6.79 3.2 13.68 3.2s10.485-1.7 13.68-3.2c2.996-1.4 5.791-2.8 11.583-2.8s8.588 1.3 11.583 2.8c3.196 1.5 6.79 3.2 13.68 3.2s10.485-1.7 13.68-3.2c2.996-1.4 5.792-2.8 11.583-2.8 5.792 0 8.588 1.3 11.583 2.8 3.196 1.5 6.791 3.2 13.681 3.2 6.889 0 10.484-1.7 13.68-3.2 2.995-1.4 5.791-2.8 11.583-2.8 5.791 0 8.587 1.3 11.583 2.8 3.195 1.5 6.79 3.2 13.68 3.2s10.485-1.7 13.68-3.2c2.996-1.4 5.791-2.8 11.583-2.8s8.587 1.3 11.583 2.8c3.195 1.5 6.79 3.2 13.68 3.2s10.485-1.7 13.68-3.2c2.996-1.4 5.792-2.8 11.583-2.8 5.792 0 8.588 1.3 11.583 2.8 3.196 1.5 6.791 3.2 13.681 3.2 6.889 0 10.484-1.7 13.68-3.2 2.995-1.4 5.791-2.8 11.583-2.8 5.791 0 8.587 1.3 11.583 2.8 3.195 1.5 6.79 3.2 13.68 3.2s10.484-1.7 13.68-3.2c2.995-1.4 5.791-2.8 11.583-2.8s8.587 1.3 11.583 2.8c3.195 1.5 6.79 3.2 13.68 3.2s10.485-1.7 13.68-3.2c2.997-1.4 5.787-2.8 11.587-2.8 5.79 0 8.58 1.3 11.58 2.8 3.19 1.5 6.79 3.2 13.68 3.2s10.48-1.7 13.68-3.2c3-1.4 5.79-2.8 11.58-2.8s8.59 1.3 11.59 2.8c3.19 1.5 6.79 3.2 13.68 3.2s10.48-1.7 13.68-3.2c2.99-1.4 5.79-2.8 11.58-2.8s8.59 1.3 11.58 2.8c3.2 1.5 6.79 3.2 13.68 3.2s10.49-1.7 13.68-3.2c3-1.4 5.79-2.8 11.59-2.8 5.79 0 8.58 1.3 11.58 2.8 3.19 1.5 6.79 3.2 13.68 3.2s10.48-1.7 13.68-3.2c2.99-1.4 5.79-2.8 11.58-2.8s8.59 1.3 11.58 2.8c3.2 1.5 6.79 3.2 13.68 3.2s10.49-1.7 13.68-3.2c3-1.4 5.8-2.8 11.59-2.8s8.59 1.3 11.58 2.8c3.2 1.5 6.79 3.2 13.68 3.2s10.49-1.7 13.68-3.2c3-1.4 5.79-2.8 11.58-2.8 5.8 0 8.59 1.3 11.59 2.8 3.19 1.5 6.79 3.2 13.68 3.2s10.48-1.7 13.68-3.2c2.99-1.4 5.79-2.8 11.58-2.8s8.59 1.3 11.58 2.8c3.2 1.5 6.79 3.2 13.68 3.2s10.49-1.7 13.68-3.2c3-1.4 5.8-2.8 11.59-2.8s8.58 1.3 11.58 2.8c3.2 1.5 6.79 3.2 13.68 3.2s10.48-1.7 13.68-3.2c3-1.4 5.79-2.8 11.58-2.8s8.59 1.3 11.59 2.8c3.19 1.5 6.79 3.2 13.68 3.2s10.48-1.7 13.68-3.2c2.99-1.4 5.79-2.8 11.58-2.8s8.59 1.3 11.58 2.8c3.2 1.5 6.79 3.2 13.68 3.2s10.49-1.7 13.68-3.2c3-1.4 5.79-2.8 11.59-2.8 5.79 0 8.58 1.3 11.58 2.8 3.19 1.5 6.79 3.2 13.68 3.2s10.48-1.7 13.68-3.2c2.99-1.4 5.79-2.8 11.58-2.8s8.59 1.3 11.59 2.8c3.19 1.5 6.79 3.2 13.68 3.2s10.48-1.7 13.68-3.2c2.99-1.4 5.79-2.8 11.58-2.8s8.59 1.3 11.58 2.8c3.2 1.5 6.79 3.2 13.68 3.2s10.49-1.7 13.68-3.2c3-1.4 5.79-2.8 11.58-2.8 5.8 0 8.59 1.3 11.59 2.8 3.19 1.5 6.79 3.2 13.68 3.2s10.48-1.7 13.68-3.2c2.99-1.4 5.79-2.8 11.58-2.8s8.59 1.3 11.58 2.8c3.2 1.5 6.79 3.2 13.68 3.2s10.49-1.7 13.68-3.2c3-1.4 5.8-2.8 11.59-2.8s8.58 1.3 11.58 2.8c3.2 1.5 6.79 3.2 13.68 3.2s10.49-1.7 13.68-3.2c3-1.4 5.79-2.8 11.58-2.8 5.8 0 8.59 1.3 11.59 2.8 3.19 1.5 6.79 3.2 13.68 3.2s10.48-1.7 13.68-3.2c2.99-1.4 5.79-2.8 11.58-2.8V6c-8.59 0-11.38-1.3-14.38-2.8z" fill="#223F99"/><path d="M1920.4 1.012v261.791c-82.5 44.206-267.3 23.064-451 18.411-240-6.069-180-84.971-716-7.081C401.9 325.217 139.5 238.829.4 173.28V6.07C6.2 6.07 9 4.753 12 3.236 15.2 1.72 18.8 0 25.7 0c3.3 0 5.9.405 8 1.012h34.4C70.2.405 72.8 0 76.1 0s5.9.405 8 1.012h34.4C120.6.405 123.2 0 126.5 0s5.9.405 8 1.012h34.4C171 .405 173.6 0 176.9 0s5.9.405 8 1.012h34.4C221.4.405 224 0 227.3 0s5.9.405 8 1.012h34.4C271.8.405 274.4 0 277.7 0s5.9.405 8 1.012h34.4C322.2.405 324.8 0 328.1 0s5.9.405 8 1.012h34.4C372.6.405 375.2 0 378.5 0s5.9.405 8 1.012h34.4C423 .405 425.6 0 428.9 0s5.9.405 8 1.012h34.4C473.4.405 476 0 479.3 0s5.9.405 8 1.012h34.4C523.8.405 526.4 0 529.7 0s5.9.405 8 1.012h35.7C575.5.405 578.1 0 581.4 0s5.9.405 8 1.012h34.4C625.9.405 628.5 0 631.8 0s5.9.405 8 1.012h34.6C676.5.405 679.1 0 682.4 0s5.9.405 8 1.012h34.4C726.9.405 729.5 0 732.8 0s5.9.405 8 1.012h34.4C777.3.405 779.9 0 783.2 0s5.9.405 8.1 1.012h34.4C827.8.405 830.4 0 833.7 0s5.9.405 8 1.012h34.4C878.2.405 880.8 0 884.1 0s5.9.405 8 1.012h34.4C928.6.405 931.2 0 934.5 0s5.9.405 8 1.012h34.4C979 .405 981.6 0 984.9 0s5.9.405 8 1.012h34.4c2.1-.607 4.7-1.012 8-1.012s5.9.405 8 1.012h34.4c2.1-.607 4.7-1.012 8.1-1.012 3.3 0 5.9.405 8 1.012h34.4c2.1-.607 4.7-1.012 8-1.012s5.9.405 8.1 1.012h34.4c2.1-.607 4.7-1.012 8-1.012s5.9.405 8 1.012h34.4c2.1-.607 4.7-1.012 8-1.012s5.9.405 8 1.012h34.4c2.1-.607 4.7-1.012 8-1.012s5.9.405 8 1.012h34.4c2.1-.607 4.7-1.012 8-1.012s5.9.405 8 1.012h34.4c2.1-.607 4.7-1.012 8-1.012s5.9.405 8 1.012h34.4c2.1-.607 4.7-1.012 8-1.012s5.9.405 8 1.012h34.4c2.1-.607 4.7-1.012 8.1-1.012 3.3 0 5.9.405 8 1.012h34.4c2.1-.607 4.7-1.012 8-1.012s5.9.405 8 1.012h34.4c2.1-.607 4.7-1.012 8.1-1.012 3.3 0 5.9.405 8.1 1.012h34.4c2.1-.607 4.7-1.012 8-1.012s5.9.405 8 1.012h34.4c2.1-.607 4.7-1.012 8-1.012s5.9.405 8 1.012h34.4c2.1-.607 4.7-1.012 8-1.012s5.9.405 8 1.012h34.4c2.1-.607 4.7-1.012 8.1-1.012 3.3 0 5.9.405 8 1.012h34.4c2.1-.607 4.7-1.012 8-1.012s5.9.405 8.1 1.012h34.4c2.1-.607 4.7-1.012 8.1-1.012 3.3 0 5.9.405 8 1.012h19.5z" fill="#244594" opacity=".05"/><path d="M1920.4 1.011v184.003c-47.4 38.035-111.8 65.651-199 66.865-292 4.046-328-70.81-635-89.018s-375 113.295-647 84.971C238.5 226.893 69.7 54.422 21.4 1.012h1899z" fill="#244594" opacity=".05"/><path d="M1920.4 1.012v122.095c-77.9 47.038-243.3 63.728-385 53.916-175-12.139-209-91.04-427-101.156s-323 16.185-527 73.844c-204 57.659-361.8-60.188-383-79.913-21.2-19.726-29.4-40.463-38.8-64.841l-1.5-3.945h11.1C171.3.405 173.9 0 177.2 0s5.9.405 8 1.012h34.4C221.7.405 224.3 0 227.6 0s5.9.405 8 1.012H270C272.1.405 274.7 0 278 0s5.9.405 8 1.012h34.4C322.5.405 325.1 0 328.4 0s5.9.405 8 1.012h34.4C372.9.405 375.5 0 378.8 0s5.9.405 8 1.012h34.4C423.3.405 425.9 0 429.2 0s5.9.405 8 1.012h34.4C473.7.405 476.3 0 479.6 0s5.9.405 8 1.012H522C524.1.405 526.7 0 530 0s5.9.405 8 1.012h35.4C575.5.405 578.1 0 581.4 0s5.9.405 8 1.012h34.4C625.9.405 628.5 0 631.8 0s5.9.405 8 1.012h34.6C676.5.405 679.1 0 682.4 0s5.9.405 8 1.012h34.4C726.9.405 729.5 0 732.8 0s5.9.405 8 1.012h34.4C777.3.405 779.9 0 783.2 0s5.9.405 8.1 1.012h34.4C827.8.405 830.4 0 833.7 0s5.9.405 8 1.012h34.4C878.2.405 880.8 0 884.1 0s5.9.405 8 1.012h34.4C928.6.405 931.2 0 934.5 0s5.9.405 8 1.012h34.4C979 .405 981.6 0 984.9 0s5.9.405 8 1.012h34.4c2.1-.607 4.7-1.012 8-1.012s5.9.405 8 1.012h34.4c2.1-.607 4.7-1.012 8.1-1.012 3.3 0 5.9.405 8 1.012h34.4c2.1-.607 4.7-1.012 8-1.012s5.9.405 8.1 1.012h34.4c2.1-.607 4.7-1.012 8-1.012s5.9.405 8 1.012h34.4c2.1-.607 4.7-1.012 8-1.012s5.9.405 8 1.012h34.4c2.1-.607 4.7-1.012 8-1.012s5.9.405 8 1.012h34.4c2.1-.607 4.7-1.012 8-1.012s5.9.405 8 1.012h34.4c2.1-.607 4.7-1.012 8-1.012s5.9.405 8 1.012h34.4c2.1-.607 4.7-1.012 8-1.012s5.9.405 8 1.012h34.4c2.1-.607 4.7-1.012 8.1-1.012 3.3 0 5.9.405 8 1.012h34.4c2.1-.607 4.7-1.012 8-1.012s5.9.405 8 1.012h34.4c2.1-.607 4.7-1.012 8.1-1.012 3.3 0 5.9.405 8.1 1.012h34.4c2.1-.607 4.7-1.012 8-1.012s5.9.405 8 1.012h34.4c2.1-.607 4.7-1.012 8-1.012s5.9.405 8 1.012h34.4c2.1-.607 4.7-1.012 8-1.012s5.9.405 8 1.012h34.4c2.1-.607 4.7-1.012 8.1-1.012 3.3 0 5.9.405 8 1.012h34.4c2.1-.607 4.7-1.012 8-1.012s5.9.405 8.1 1.012h34.4c2.1-.607 4.7-1.012 8.1-1.012 3.3 0 5.9.405 8 1.012h19.5z" fill="#244594" opacity=".05"/></g><defs><clipPath id="clip0"><path fill="#fff" d="M0 0h1920v350H0z"/></clipPath></defs></svg>