<svg width="20" height="20" fill="none" xmlns="http://www.w3.org/2000/svg"><path d="M5.556 3.906V1.683C5.556.294 5.26.017 3.889.017L1.667 0C.344 0 0 .312 0 1.667v2.222c0 1.373.278 1.667 1.667 1.667h2.222c1.389 0 1.667-.278 1.667-1.65zm0 7.221V8.905c0-1.389-.295-1.667-1.667-1.667l-2.222-.016C.344 7.222 0 7.533 0 8.888v2.223c0 1.372.278 1.666 1.667 1.666h2.222c1.389 0 1.667-.277 1.667-1.65zm0 7.222v-2.222c0-1.389-.295-1.666-1.667-1.666l-2.222-.017C.344 14.444 0 14.756 0 16.111v2.222C0 19.706.278 20 1.667 20h2.222c1.389 0 1.667-.278 1.667-1.65zm7.222-14.443V1.683c0-1.389-.294-1.666-1.667-1.666L8.89 0C7.567 0 7.222.312 7.222 1.667v2.222c0 1.373.278 1.667 1.667 1.667h2.222c1.389 0 1.667-.278 1.667-1.65zm0 7.221V8.905c0-1.389-.294-1.667-1.667-1.667L8.89 7.222c-1.322 0-1.667.311-1.667 1.666v2.223c0 1.372.278 1.666 1.667 1.666h2.222c1.389 0 1.667-.277 1.667-1.65zm0 7.222v-2.222c0-1.389-.294-1.666-1.667-1.666l-2.222-.017c-1.322 0-1.667.312-1.667 1.667v2.222C7.222 19.706 7.5 20 8.89 20h2.222c1.389 0 1.667-.278 1.667-1.65zM20 3.906V1.683C20 .294 19.706.017 18.333.017L16.111 0c-1.322 0-1.667.312-1.667 1.667v2.222c0 1.373.278 1.667 1.667 1.667h2.222c1.39 0 1.667-.278 1.667-1.65zm0 7.221V8.905c0-1.389-.294-1.667-1.667-1.667l-2.222-.016c-1.322 0-1.667.311-1.667 1.666v2.223c0 1.372.278 1.666 1.667 1.666h2.222c1.39 0 1.667-.277 1.667-1.65zm0 7.222v-2.222c0-1.389-.294-1.666-1.667-1.666l-2.222-.017c-1.322 0-1.667.312-1.667 1.667v2.222c0 1.373.278 1.667 1.667 1.667h2.222c1.39 0 1.667-.278 1.667-1.65z" fill="#BDBDBD"/></svg>