<svg width="1920" height="249" fill="none" xmlns="http://www.w3.org/2000/svg"><g clip-path="url(#clip0)"><path d="M0 0v243.048c5.8 0 8.6 1.289 11.6 2.778 3.2 1.488 6.8 3.174 13.7 3.174 6.9 0 10.5-1.686 13.7-3.174 3-1.389 5.8-2.778 11.6-2.778s8.6 1.289 11.6 2.778C65.4 247.314 69 249 75.9 249c6.9 0 10.5-1.686 13.7-3.174 3-1.389 5.8-2.778 11.6-2.778s8.6 1.289 11.6 2.778c3.2 1.488 6.8 3.174 13.7 3.174 6.9 0 10.5-1.686 13.7-3.174 3-1.389 5.8-2.778 11.6-2.778s8.6 1.289 11.6 2.778c3.2 1.488 6.8 3.174 13.7 3.174 6.9 0 10.5-1.686 13.7-3.174 3-1.389 5.8-2.778 11.6-2.778s8.6 1.289 11.6 2.778c3.2 1.488 6.8 3.174 13.7 3.174 6.9 0 10.5-1.686 13.7-3.174 3-1.389 5.8-2.778 11.6-2.778s8.6 1.289 11.6 2.778c3.2 1.488 6.8 3.174 13.7 3.174 6.9 0 10.5-1.686 13.7-3.174 3-1.389 5.8-2.778 11.6-2.778s8.6 1.289 11.6 2.778c3.2 1.488 6.8 3.174 13.7 3.174 6.9 0 10.5-1.686 13.7-3.174 3-1.389 5.8-2.778 11.6-2.778s8.6 1.289 11.6 2.778c3.2 1.488 6.8 3.174 13.7 3.174 6.9 0 10.5-1.686 13.7-3.174 3-1.389 5.8-2.778 11.6-2.778s8.6 1.289 11.6 2.778c3.2 1.488 6.8 3.174 13.7 3.174 6.9 0 10.5-1.686 13.7-3.174 3-1.389 5.8-2.778 11.6-2.778s8.6 1.289 11.6 2.778c3.2 1.488 6.8 3.174 13.7 3.174 6.9 0 10.5-1.686 13.7-3.174 3-1.389 5.8-2.778 11.6-2.778s8.6 1.289 11.6 2.778c3.2 1.488 6.8 3.174 13.7 3.174 6.9 0 10.5-1.686 13.7-3.174 3-1.389 5.8-2.778 11.6-2.778s8.6 1.289 11.6 2.778c3.2 1.488 6.8 3.174 13.7 3.174 6.9 0 10.5-1.686 13.7-3.174 3-1.389 5.8-2.778 11.6-2.778s8.6 1.289 11.6 2.778c3.2 1.488 6.8 3.174 13.7 3.174 6.9 0 10.5-1.686 13.7-3.174 3-1.389 5.8-2.778 11.6-2.778s8.6 1.289 11.6 2.778c3.2 1.488 6.8 3.174 13.7 3.174 6.9 0 10.5-1.686 13.7-3.174 3-1.389 5.8-2.778 11.6-2.778s8.6 1.289 11.6 2.778c3.2 1.488 6.8 3.174 13.7 3.174 6.9 0 10.5-1.686 13.7-3.174 3-1.389 5.8-2.778 11.6-2.778s8.6 1.289 11.6 2.778c3.2 1.488 6.8 3.174 13.7 3.174 6.9 0 10.5-1.686 13.7-3.174 3-1.389 5.8-2.778 11.6-2.778s8.6 1.289 11.6 2.778c3.2 1.488 6.8 3.174 13.7 3.174 6.9 0 10.5-1.686 13.7-3.174 3-1.389 5.8-2.778 11.6-2.778s8.6 1.289 11.6 2.778c3.2 1.488 6.8 3.174 13.7 3.174 6.9 0 10.5-1.686 13.7-3.174 3-1.389 5.8-2.778 11.6-2.778s8.6 1.289 11.6 2.778c3.2 1.488 6.8 3.174 13.7 3.174 6.9 0 10.5-1.686 13.7-3.174 3-1.389 5.8-2.778 11.6-2.778s8.6 1.289 11.6 2.778c3.2 1.488 6.8 3.174 13.7 3.174 6.9 0 10.5-1.686 13.7-3.174 3-1.389 5.8-2.778 11.6-2.778s8.6 1.289 11.6 2.778c3.2 1.488 6.8 3.174 13.7 3.174 6.9 0 10.5-1.686 13.7-3.174 3-1.389 5.8-2.778 11.6-2.778s8.6 1.289 11.6 2.778c3.2 1.488 6.8 3.174 13.7 3.174 6.9 0 10.5-1.686 13.7-3.174 3-1.389 5.8-2.778 11.6-2.778s8.6 1.289 11.6 2.778c3.2 1.488 6.8 3.174 13.7 3.174 6.9 0 10.5-1.686 13.7-3.174 3-1.389 5.8-2.778 11.6-2.778s8.6 1.289 11.6 2.778c3.2 1.488 6.8 3.174 13.7 3.174 6.9 0 10.5-1.686 13.7-3.174 3-1.389 5.8-2.778 11.6-2.778s8.6 1.289 11.6 2.778c3.2 1.488 6.8 3.174 13.7 3.174 6.9 0 10.5-1.686 13.7-3.174 3-1.389 5.8-2.778 11.6-2.778s8.6 1.289 11.6 2.778c3.2 1.488 6.8 3.174 13.7 3.174 6.9 0 10.5-1.686 13.7-3.174 3-1.389 5.8-2.778 11.6-2.778s8.6 1.289 11.6 2.778c3.2 1.488 6.8 3.174 13.7 3.174 6.9 0 10.5-1.686 13.7-3.174 3-1.389 5.8-2.778 11.6-2.778s8.6 1.289 11.6 2.778c3.2 1.488 6.8 3.174 13.7 3.174 6.9 0 10.5-1.686 13.7-3.174 3-1.389 5.8-2.778 11.6-2.778s8.6 1.289 11.6 2.778c3.2 1.488 6.8 3.174 13.7 3.174 6.9 0 10.5-1.686 13.7-3.174 3-1.389 5.8-2.778 11.6-2.778s8.6 1.289 11.6 2.778c3.2 1.488 6.8 3.174 13.7 3.174 6.9 0 10.5-1.686 13.7-3.174 3-1.389 5.8-2.778 11.6-2.778s8.6 1.289 11.6 2.778c3.2 1.488 6.8 3.174 13.7 3.174 6.9 0 10.5-1.686 13.7-3.174 3-1.389 5.8-2.778 11.6-2.778s8.6 1.289 11.6 2.778c3.2 1.488 6.8 3.174 13.7 3.174 6.9 0 10.5-1.686 13.7-3.174 3-1.389 5.8-2.778 11.6-2.778s8.6 1.289 11.6 2.778c3.2 1.488 6.8 3.174 13.7 3.174 6.9 0 10.5-1.686 13.7-3.174 3-1.389 5.8-2.778 11.6-2.778s8.6 1.289 11.6 2.778c3.2 1.488 6.8 3.174 13.7 3.174 6.9 0 10.5-1.686 13.7-3.174 3-1.389 5.8-2.778 11.6-2.778s8.6 1.289 11.6 2.778c3.2 1.488 6.8 3.174 13.7 3.174 6.9 0 10.5-1.686 13.7-3.174 3-1.389 5.8-2.778 11.6-2.778s8.6 1.289 11.6 2.778c3.2 1.488 6.8 3.174 13.7 3.174 6.9 0 10.5-1.686 13.7-3.174 3-1.389 5.8-2.778 11.6-2.778s8.6 1.289 11.6 2.778c3.2 1.488 6.8 3.174 13.7 3.174 6.9 0 10.5-1.686 13.7-3.174 3-1.389 5.8-2.778 11.6-2.778s8.6 1.289 11.6 2.778c3.2 1.488 6.8 3.174 13.7 3.174 6.9 0 10.5-1.686 13.7-3.174 3-1.389 5.8-2.778 11.6-2.778V0H0z" fill="#244594"/><path d="M1920 0v190.272c-82.5 43.352-267.3 22.618-451 18.055-240-5.952-180-83.331-716-6.945-351.5 50.098-613.9-34.621-753-98.905V0h1920z" fill="#223F99" opacity=".075"/><path d="M1920 0v135.908c-63 35.714-111.8 42.459-199 43.65-292 3.968-328-69.442-635-87.299-307-17.857-377 121.028-649 93.251C236.1 164.975 85.7 52.38 37.5 0H1920z" fill="#223F99" opacity=".06"/><path d="M1920 0v75.394c-74.5 83.331-224.8 67.657-366.5 58.034-175-11.904-227.5-76.882-445.5-86.802-218-9.92-323 15.872-527 72.418-204 56.546-340-33.233-340-33.233S166.5 46.625 148.8 0H1920z" fill="#223F99" opacity=".065"/></g><defs><clipPath id="clip0"><path fill="#fff" d="M0 0h1920v249H0z"/></clipPath></defs></svg>