<svg width="46" height="46" fill="none" xmlns="http://www.w3.org/2000/svg"><mask id="a" fill="#fff"><rect width="46" height="46" rx="1.5"/></mask><rect width="46" height="46" rx="1.5" fill="#fff" stroke="#BDBDBD" stroke-width="4" mask="url(#a)"/><path d="M27.817 18.559L22.69 23.5l5.126 4.941a.562.562 0 01.183.419c0 .161-.061.3-.183.419l-1.603 1.544a.605.605 0 01-.434.177.604.604 0 01-.434-.177l-7.163-6.904A.562.562 0 0118 23.5c0-.161.061-.3.183-.419l7.163-6.904A.604.604 0 0125.78 16c.167 0 .312.059.434.177l1.603 1.544a.562.562 0 01.183.42c0 .16-.061.3-.183.418z" fill="#BDBDBD"/></svg>