<svg width="10" height="15" viewBox="0 0 10 15" fill="none" xmlns="http://www.w3.org/2000/svg">
<path d="M0.183398 2.55893L5.30888 7.5L0.183398 12.4411C0.0611329 12.5589 3.09199e-07 12.6985 3.09199e-07 12.8598C3.09199e-07 13.0211 0.0611329 13.1607 0.183398 13.2785L1.78571 14.8232C1.90798 14.9411 2.05277 15 2.22008 15C2.38739 15 2.53218 14.9411 2.65444 14.8232L9.8166 7.91873C9.93887 7.80087 10 7.66129 10 7.5C10 7.33871 9.93887 7.19913 9.8166 7.08127L2.65444 0.176799C2.53218 0.058933 2.38739 0 2.22008 0C2.05277 0 1.90798 0.058933 1.78571 0.176799L0.183398 1.72146C0.0611329 1.83933 3.09199e-07 1.97891 3.09199e-07 2.1402C3.09199e-07 2.30149 0.0611329 2.44107 0.183398 2.55893Z" fill="#BDBDBD"/>
</svg>
