<svg width="48" height="48" viewBox="0 0 48 48" fill="none" xmlns="http://www.w3.org/2000/svg">
<rect x="0.5" y="0.5" width="47" height="47" rx="2" fill="white" stroke="#BDBDBD"/>
<path d="M19.1834 19.5589L24.3089 24.5L19.1834 29.4411C19.0611 29.5589 19 29.6985 19 29.8598C19 30.0211 19.0611 30.1607 19.1834 30.2785L20.7857 31.8232C20.908 31.9411 21.0528 32 21.2201 32C21.3874 32 21.5322 31.9411 21.6544 31.8232L28.8166 24.9187C28.9389 24.8009 29 24.6613 29 24.5C29 24.3387 28.9389 24.1991 28.8166 24.0813L21.6544 17.1768C21.5322 17.0589 21.3874 17 21.2201 17C21.0528 17 20.908 17.0589 20.7857 17.1768L19.1834 18.7215C19.0611 18.8393 19 18.9789 19 19.1402C19 19.3015 19.0611 19.4411 19.1834 19.5589Z" fill="#BDBDBD"/>
</svg>
