<svg width="20" height="20" viewBox="0 0 20 20" fill="none" xmlns="http://www.w3.org/2000/svg">
<path d="M5.55556 3.90556V1.68333C5.55556 0.294445 5.26111 0.0166667 3.88889 0.0166667L1.66667 0C0.344444 0 0 0.311667 0 1.66667V3.88889C0 5.26167 0.277778 5.55556 1.66667 5.55556H3.88889C5.27778 5.55556 5.55556 5.27778 5.55556 3.90556ZM5.55556 11.1272V8.905C5.55556 7.51611 5.26111 7.23833 3.88889 7.23833L1.66667 7.22167C0.344444 7.22167 0 7.53333 0 8.88833V11.1106C0 12.4833 0.277778 12.7772 1.66667 12.7772H3.88889C5.27778 12.7778 5.55556 12.5 5.55556 11.1272ZM5.55556 18.3494V16.1272C5.55556 14.7383 5.26111 14.4606 3.88889 14.4606L1.66667 14.4444C0.344444 14.4444 0 14.7561 0 16.1111V18.3333C0 19.7061 0.277778 20 1.66667 20H3.88889C5.27778 20 5.55556 19.7222 5.55556 18.3494ZM12.7778 3.90556V1.68333C12.7778 0.294445 12.4839 0.0166667 11.1111 0.0166667L8.88889 0C7.56667 0 7.22222 0.311667 7.22222 1.66667V3.88889C7.22222 5.26167 7.5 5.55556 8.88889 5.55556H11.1111C12.5 5.55556 12.7778 5.27778 12.7778 3.90556ZM12.7778 11.1272V8.905C12.7778 7.51611 12.4839 7.23833 11.1111 7.23833L8.88889 7.22167C7.56667 7.22167 7.22222 7.53333 7.22222 8.88833V11.1106C7.22222 12.4833 7.5 12.7772 8.88889 12.7772H11.1111C12.5 12.7778 12.7778 12.5 12.7778 11.1272ZM12.7778 18.3494V16.1272C12.7778 14.7383 12.4839 14.4606 11.1111 14.4606L8.88889 14.4444C7.56667 14.4444 7.22222 14.7561 7.22222 16.1111V18.3333C7.22222 19.7061 7.5 20 8.88889 20H11.1111C12.5 20 12.7778 19.7222 12.7778 18.3494ZM20 3.90556V1.68333C20 0.294445 19.7061 0.0166667 18.3333 0.0166667L16.1111 0C14.7889 0 14.4444 0.311667 14.4444 1.66667V3.88889C14.4444 5.26167 14.7222 5.55556 16.1111 5.55556H18.3333C19.7222 5.55556 20 5.27778 20 3.90556ZM20 11.1272V8.905C20 7.51611 19.7061 7.23833 18.3333 7.23833L16.1111 7.22167C14.7889 7.22167 14.4444 7.53333 14.4444 8.88833V11.1106C14.4444 12.4833 14.7222 12.7772 16.1111 12.7772H18.3333C19.7222 12.7778 20 12.5 20 11.1272ZM20 18.3494V16.1272C20 14.7383 19.7061 14.4606 18.3333 14.4606L16.1111 14.4444C14.7889 14.4444 14.4444 14.7561 14.4444 16.1111V18.3333C14.4444 19.7061 14.7222 20 16.1111 20H18.3333C19.7222 20 20 19.7222 20 18.3494Z" fill="#BDBDBD"/>
</svg>
