<svg width="25" height="25" viewBox="0 0 25 25" fill="none" xmlns="http://www.w3.org/2000/svg">
<g clip-path="url(#clip0)">
<path d="M21.6072 10.0893C21.6072 17.381 12.2322 23.631 12.2322 23.631C12.2322 23.631 2.85718 17.381 2.85718 10.0893C2.85718 7.60289 3.8449 5.21832 5.60305 3.46017C7.3612 1.70201 9.74577 0.714293 12.2322 0.714293C14.7186 0.714293 17.1031 1.70201 18.8613 3.46017C20.6195 5.21832 21.6072 7.60289 21.6072 10.0893Z" stroke="#E5E5E5" stroke-width="2" stroke-linecap="round" stroke-linejoin="round"/>
<path d="M12.4108 13.3929C14.1367 13.3929 15.5358 11.9938 15.5358 10.2679C15.5358 8.54198 14.1367 7.14287 12.4108 7.14287C10.6849 7.14287 9.28577 8.54198 9.28577 10.2679C9.28577 11.9938 10.6849 13.3929 12.4108 13.3929Z" stroke="#E5E5E5" stroke-width="2" stroke-linecap="round" stroke-linejoin="round"/>
</g>
<defs>
<clipPath id="clip0">
<rect width="25" height="25" fill="white"/>
</clipPath>
</defs>
</svg>
