<svg width="46" height="46" viewBox="0 0 46 46" fill="none" xmlns="http://www.w3.org/2000/svg">
<mask id="path-1-inside-1" fill="white">
<rect width="46" height="46" rx="1.5"/>
</mask>
<rect width="46" height="46" rx="1.5" fill="white" stroke="#BDBDBD" stroke-width="4" mask="url(#path-1-inside-1)"/>
<path d="M18.1834 18.5589L23.3089 23.5L18.1834 28.4411C18.0611 28.5589 18 28.6985 18 28.8598C18 29.0211 18.0611 29.1607 18.1834 29.2785L19.7857 30.8232C19.908 30.9411 20.0528 31 20.2201 31C20.3874 31 20.5322 30.9411 20.6544 30.8232L27.8166 23.9187C27.9389 23.8009 28 23.6613 28 23.5C28 23.3387 27.9389 23.1991 27.8166 23.0813L20.6544 16.1768C20.5322 16.0589 20.3874 16 20.2201 16C20.0528 16 19.908 16.0589 19.7857 16.1768L18.1834 17.7215C18.0611 17.8393 18 17.9789 18 18.1402C18 18.3015 18.0611 18.4411 18.1834 18.5589Z" fill="#BDBDBD"/>
</svg>
