<svg width="1920" height="350" viewBox="0 0 1920 350" fill="none" xmlns="http://www.w3.org/2000/svg">
<g clip-path="url(#clip0)">
<path d="M1905.62 3.2C1902.43 1.7 1898.83 0 1891.94 0C1885.05 0 1881.46 1.7 1878.26 3.2C1875.27 4.6 1872.47 6 1866.68 6C1860.89 6 1858.09 4.7 1855.09 3.2C1851.9 1.7 1848.3 0 1841.41 0C1834.52 0 1830.93 1.7 1827.73 3.2C1824.74 4.6 1821.94 6 1816.15 6C1810.36 6 1807.56 4.7 1804.57 3.2C1801.37 1.7 1797.78 0 1790.89 0C1784 0 1780.4 1.7 1777.21 3.2C1774.21 4.6 1771.42 6 1765.62 6C1759.83 6 1757.04 4.7 1754.04 3.2C1750.85 1.7 1747.25 0 1740.36 0C1733.47 0 1729.88 1.7 1726.68 3.2C1723.69 4.6 1720.89 6 1715.1 6C1709.31 6 1706.51 4.7 1703.52 3.2C1700.32 1.7 1696.73 0 1689.84 0C1682.95 0 1679.35 1.7 1676.16 3.2C1673.16 4.6 1670.36 6 1664.57 6C1658.78 6 1655.98 4.7 1652.99 3.2C1649.79 1.7 1646.2 0 1639.31 0C1632.42 0 1628.82 1.7 1625.63 3.2C1622.63 4.6 1619.84 6 1614.05 6C1608.25 6 1605.46 4.7 1602.46 3.2C1599.27 1.7 1595.67 0 1588.78 0C1581.89 0 1578.3 1.7 1575.1 3.2C1572.11 4.6 1569.31 6 1563.52 6C1557.73 6 1554.93 4.7 1551.94 3.2C1548.74 1.7 1545.15 0 1538.26 0C1531.37 0 1527.77 1.7 1524.58 3.2C1521.58 4.6 1518.79 6 1512.99 6C1507.2 6 1504.41 4.7 1501.41 3.2C1498.21 1.7 1494.62 0 1487.73 0C1480.84 0 1477.25 1.7 1474.05 3.2C1471.05 4.6 1468.26 6 1462.47 6C1456.68 6 1453.88 4.7 1450.88 3.2C1447.69 1.7 1444.09 0 1437.2 0C1430.31 0 1426.72 1.7 1423.52 3.2C1420.53 4.6 1417.73 6 1411.94 6C1406.15 6 1403.35 4.7 1400.36 3.2C1397.16 1.7 1393.57 0 1386.68 0C1379.79 0 1376.19 1.7 1373 3.2C1370 4.6 1367.21 6 1361.41 6C1355.62 6 1352.83 4.7 1349.83 3.2C1346.64 1.7 1343.04 0 1336.15 0C1329.26 0 1325.67 1.7 1322.47 3.2C1319.48 4.6 1316.68 6 1310.89 6C1305.1 6 1302.3 4.7 1299.31 3.2C1296.11 1.7 1292.52 0 1285.63 0C1278.74 0 1275.14 1.7 1271.95 3.2C1268.95 4.6 1266.15 6 1260.36 6C1254.57 6 1251.77 4.7 1248.78 3.2C1245.58 1.7 1241.99 0 1235.1 0C1228.21 0 1224.61 1.7 1221.42 3.2C1218.42 4.6 1215.63 6 1209.84 6C1204.04 6 1201.25 4.7 1198.25 3.2C1195.06 1.7 1191.46 0 1184.57 0C1177.68 0 1174.09 1.7 1170.89 3.2C1167.9 4.6 1165.1 6 1159.31 6C1153.52 6 1150.72 4.7 1147.73 3.2C1144.53 1.7 1140.94 0 1134.05 0C1127.16 0 1123.56 1.7 1120.37 3.2C1117.37 4.6 1114.57 6 1108.78 6C1102.99 6 1100.2 4.7 1097.2 3.2C1094 1.7 1090.41 0 1083.52 0C1076.63 0 1073.04 1.7 1069.84 3.2C1066.84 4.6 1064.05 6 1058.26 6C1052.47 6 1049.67 4.7 1046.67 3.2C1043.48 1.7 1039.88 0 1032.99 0C1026.1 0 1022.51 1.7 1019.31 3.2C1016.32 4.6 1013.52 6 1007.73 6C1001.94 6 999.143 4.7 996.147 3.2C992.952 1.7 989.357 0 982.467 0C975.577 0 971.982 1.7 968.787 3.2C965.792 4.6 962.996 6 957.204 6C951.412 6 948.617 4.7 945.621 3.2C942.426 1.7 938.831 0 931.941 0C925.051 0 922.854 1.7 919.659 3.2C916.663 4.6 913.867 6 908.076 6C902.284 6 899.488 4.7 896.493 3.2C893.397 1.7 889.702 0 882.912 0C876.022 0 872.428 1.7 869.232 3.2C866.237 4.6 863.441 6 857.649 6C851.858 6 849.062 4.7 846.066 3.2C842.871 1.7 839.276 0 832.386 0C825.496 0 821.901 1.7 818.706 3.2C815.71 4.6 812.914 6 807.123 6C801.331 6 798.535 4.7 795.54 3.2C792.444 1.7 788.85 0 781.96 0C775.07 0 771.475 1.7 768.28 3.2C765.284 4.6 762.488 6 756.696 6C750.905 6 748.109 4.7 745.113 3.2C741.918 1.7 738.323 0 731.433 0C724.543 0 720.949 1.7 717.753 3.2C714.758 4.6 711.962 6 706.17 6C700.379 6 697.583 4.7 694.587 3.2C691.392 1.7 687.797 0 680.907 0C674.017 0 670.422 1.7 667.227 3.2C664.231 4.6 661.435 6 655.644 6C649.852 6 647.056 4.7 644.061 3.2C641.065 1.7 637.47 0 630.58 0C623.69 0 620.096 1.7 616.9 3.2C613.905 4.6 611.109 6 605.317 6C599.526 6 596.73 4.7 593.734 3.2C590.639 1.7 587.044 0 580.154 0C573.264 0 569.669 1.7 566.474 3.2C563.478 4.6 560.682 6 554.891 6C549.099 6 546.303 4.7 543.308 3.2C540.212 1.7 536.617 0 529.727 0C522.838 0 519.243 1.7 516.047 3.2C513.052 4.6 510.256 6 504.464 6C498.673 6 495.877 4.7 492.881 3.2C489.786 1.7 486.091 0 479.301 0C472.411 0 468.816 1.7 465.621 3.2C462.625 4.6 459.829 6 454.038 6C448.246 6 445.45 4.7 442.455 3.2C439.259 1.7 435.665 0 428.775 0C421.885 0 418.29 1.7 415.095 3.2C412.099 4.6 409.303 6 403.512 6C397.72 6 394.924 4.7 391.928 3.2C388.733 1.7 385.138 0 378.248 0C371.358 0 367.764 1.7 364.568 3.2C361.573 4.6 358.777 6 352.985 6C347.194 6 344.398 4.7 341.402 3.2C338.207 1.7 334.612 0 327.722 0C320.832 0 317.237 1.7 314.042 3.2C311.046 4.6 308.25 6 302.459 6C296.667 6 293.871 4.7 290.876 3.2C287.68 1.7 284.086 0 277.196 0C270.306 0 266.711 1.7 263.516 3.2C260.52 4.6 257.724 6 251.933 6C246.141 6 243.345 4.7 240.349 3.2C237.154 1.7 233.559 0 226.669 0C219.779 0 216.185 1.7 212.989 3.2C209.994 4.6 207.198 6 201.406 6C195.615 6 192.819 4.7 189.823 3.2C186.628 1.7 183.033 0 176.143 0C169.253 0 165.658 1.7 162.463 3.2C159.467 4.6 156.672 6 150.88 6C145.088 6 142.292 4.7 139.297 3.2C136.102 1.7 132.507 0 125.617 0C118.727 0 115.132 1.7 111.937 3.2C108.941 4.6 106.145 6 100.354 6C94.5621 6 91.7662 4.7 88.7705 3.2C86.1743 1.7 82.5796 0 75.6896 0C68.7997 0 65.2049 1.7 62.0096 3.2C59.0139 4.7 56.218 6 50.4265 6C44.7348 6 41.9388 4.7 38.9432 3.2C35.7479 1.7 32.0533 0 25.2632 0C18.3732 0 14.7784 1.7 11.5831 3.2C8.58748 4.7 5.79155 6 0 6V10V11V95V251V335V336V340C5.79155 340 8.58748 341.3 11.5831 342.8C14.7784 344.3 18.3732 346 25.2632 346C32.1531 346 35.7479 344.3 38.9432 342.8C41.9388 341.4 44.7348 340 50.5263 340C56.3179 340 59.1138 341.3 62.1094 342.8C65.3048 344.3 68.8995 346 75.7895 346C82.6794 346 86.2742 344.3 89.4695 342.8C92.4651 341.4 95.2611 340 101.053 340C106.844 340 109.64 341.3 112.636 342.8C115.831 344.3 119.426 346 126.316 346C133.206 346 136.8 344.3 139.996 342.8C142.991 341.4 145.787 340 151.579 340C157.37 340 160.166 341.3 163.162 342.8C166.357 344.3 169.952 346 176.842 346C183.732 346 187.327 344.3 190.522 342.8C193.518 341.4 196.314 340 202.105 340C207.897 340 210.693 341.3 213.688 342.8C216.884 344.3 220.478 346 227.368 346C234.258 346 237.853 344.3 241.048 342.8C244.044 341.4 246.84 340 252.632 340C258.423 340 261.219 341.3 264.215 342.8C267.41 344.3 271.005 346 277.895 346C284.785 346 288.379 344.3 291.575 342.8C294.57 341.4 297.366 340 303.158 340C308.949 340 311.745 341.3 314.741 342.8C317.936 344.3 321.531 346 328.421 346C335.311 346 338.906 344.3 342.101 342.8C345.097 341.4 347.893 340 353.684 340C359.476 340 362.272 341.3 365.267 342.8C368.463 344.3 372.057 346 378.947 346C385.837 346 389.432 344.3 392.627 342.8C395.623 341.4 398.419 340 404.21 340C410.002 340 412.798 341.3 415.794 342.8C418.989 344.3 422.584 346 429.474 346C436.364 346 439.958 344.3 443.154 342.8C446.149 341.4 448.945 340 454.737 340C460.528 340 463.324 341.3 466.32 342.8C469.515 344.3 473.11 346 480 346C486.89 346 490.485 344.3 493.68 342.8C496.676 341.4 499.472 340 505.263 340C511.055 340 513.851 341.3 516.846 342.8C520.042 344.3 523.636 346 530.526 346C537.416 346 541.011 344.3 544.206 342.8C547.202 341.4 549.998 340 555.789 340C561.581 340 564.377 341.3 567.373 342.8C570.568 344.3 574.163 346 581.053 346C587.943 346 591.537 344.3 594.733 342.8C597.728 341.4 600.524 340 606.316 340C612.107 340 614.903 341.3 617.899 342.8C621.094 344.3 624.689 346 631.579 346C638.469 346 642.064 344.3 645.259 342.8C648.255 341.4 651.05 340 656.842 340C662.634 340 665.43 341.3 668.425 342.8C671.621 344.3 675.215 346 682.105 346C688.995 346 692.59 344.3 695.785 342.8C698.781 341.4 701.577 340 707.368 340C713.16 340 715.956 341.3 718.951 342.8C722.147 344.3 725.742 346 732.632 346C739.521 346 743.116 344.3 746.312 342.8C749.307 341.4 752.103 340 757.895 340C763.686 340 766.482 341.3 769.478 342.8C772.673 344.3 776.268 346 783.158 346C790.048 346 793.643 344.3 796.838 342.8C799.834 341.4 802.629 340 808.421 340C814.213 340 817.008 341.3 820.004 342.8C823.199 344.3 826.794 346 833.684 346C840.574 346 844.169 344.3 847.364 342.8C850.36 341.4 853.156 340 858.947 340C864.739 340 867.535 341.3 870.53 342.8C873.726 344.3 877.321 346 884.211 346C891.1 346 894.695 344.3 897.891 342.8C900.886 341.4 903.682 340 909.474 340C915.265 340 918.061 341.3 921.057 342.8C924.252 344.3 927.847 346 934.737 346C941.627 346 945.221 344.3 948.417 342.8C951.412 341.4 954.208 340 960 340C965.792 340 968.587 341.3 971.583 342.8C974.778 344.3 978.373 346 985.263 346C992.153 346 995.748 344.3 998.943 342.8C1001.94 341.4 1004.73 340 1010.53 340C1016.32 340 1019.11 341.3 1022.11 342.8C1025.3 344.3 1028.9 346 1035.79 346C1042.68 346 1046.27 344.3 1049.47 342.8C1052.47 341.4 1055.26 340 1061.05 340C1066.84 340 1069.64 341.3 1072.64 342.8C1075.83 344.3 1079.43 346 1086.32 346C1093.21 346 1096.8 344.3 1100 342.8C1102.99 341.4 1105.79 340 1111.58 340C1117.37 340 1120.17 341.3 1123.16 342.8C1126.36 344.3 1129.95 346 1136.84 346C1143.73 346 1147.33 344.3 1150.52 342.8C1153.52 341.4 1156.31 340 1162.11 340C1167.9 340 1170.69 341.3 1173.69 342.8C1176.88 344.3 1180.48 346 1187.37 346C1194.26 346 1197.85 344.3 1201.05 342.8C1204.04 341.4 1206.84 340 1212.63 340C1218.42 340 1221.22 341.3 1224.21 342.8C1227.41 344.3 1231 346 1237.89 346C1244.78 346 1248.38 344.3 1251.57 342.8C1254.57 341.4 1257.37 340 1263.16 340C1268.95 340 1271.75 341.3 1274.74 342.8C1277.94 344.3 1281.53 346 1288.42 346C1295.31 346 1298.91 344.3 1302.1 342.8C1305.1 341.4 1307.89 340 1313.68 340C1319.48 340 1322.27 341.3 1325.27 342.8C1328.46 344.3 1332.06 346 1338.95 346C1345.84 346 1349.43 344.3 1352.63 342.8C1355.62 341.4 1358.42 340 1364.21 340C1370 340 1372.8 341.3 1375.79 342.8C1378.99 344.3 1382.58 346 1389.47 346C1396.36 346 1399.96 344.3 1403.15 342.8C1406.15 341.4 1408.95 340 1414.74 340C1420.53 340 1423.32 341.3 1426.32 342.8C1429.52 344.3 1433.11 346 1440 346C1446.89 346 1450.48 344.3 1453.68 342.8C1456.68 341.4 1459.47 340 1465.26 340C1471.05 340 1473.85 341.3 1476.85 342.8C1480.04 344.3 1483.64 346 1490.53 346C1497.42 346 1501.01 344.3 1504.21 342.8C1507.2 341.4 1510 340 1515.79 340C1521.58 340 1524.38 341.3 1527.37 342.8C1530.57 344.3 1534.16 346 1541.05 346C1547.94 346 1551.54 344.3 1554.73 342.8C1557.73 341.4 1560.52 340 1566.32 340C1572.11 340 1574.9 341.3 1577.9 342.8C1581.09 344.3 1584.69 346 1591.58 346C1598.47 346 1602.06 344.3 1605.26 342.8C1608.25 341.4 1611.05 340 1616.84 340C1622.63 340 1625.43 341.3 1628.43 342.8C1631.62 344.3 1635.22 346 1642.11 346C1649 346 1652.59 344.3 1655.79 342.8C1658.78 341.4 1661.58 340 1667.37 340C1673.16 340 1675.96 341.3 1678.95 342.8C1682.15 344.3 1685.74 346 1692.63 346C1699.52 346 1703.12 344.3 1706.31 342.8C1709.31 341.4 1712.1 340 1717.89 340C1723.69 340 1726.48 341.3 1729.48 342.8C1732.67 344.3 1736.27 346 1743.16 346C1750.05 346 1753.64 344.3 1756.84 342.8C1759.83 341.4 1762.63 340 1768.42 340C1774.21 340 1777.01 341.3 1780 342.8C1783.2 344.3 1786.79 346 1793.68 346C1800.57 346 1804.17 344.3 1807.36 342.8C1810.36 341.4 1813.16 340 1818.95 340C1824.74 340 1827.53 341.3 1830.53 342.8C1833.73 344.3 1837.32 346 1844.21 346C1851.1 346 1854.7 344.3 1857.89 342.8C1860.89 341.4 1863.68 340 1869.47 340C1875.27 340 1878.06 341.3 1881.06 342.8C1884.25 344.3 1887.85 346 1894.74 346C1901.63 346 1905.22 344.3 1908.42 342.8C1911.41 341.4 1914.21 340 1920 340V336V335V251V95V11V10V6C1911.41 6 1908.62 4.7 1905.62 3.2Z" fill="#223F99"/>
<g style="mix-blend-mode:screen" opacity="0.05">
<path d="M1920.4 1.01156V262.803C1837.9 307.009 1653.1 285.867 1469.4 281.214C1229.4 275.145 1289.4 196.243 753.4 274.133C401.9 325.217 139.5 238.829 0.4 173.28V6.06936C6.2 6.06936 9 4.75434 12 3.23699C15.2 1.71965 18.8 0 25.7 0C29 0 31.6 0.404624 33.7 1.01156H68.1C70.2 0.404624 72.8 0 76.1 0C79.4 0 82 0.404624 84.1 1.01156H118.5C120.6 0.404624 123.2 0 126.5 0C129.8 0 132.4 0.404624 134.5 1.01156H168.9C171 0.404624 173.6 0 176.9 0C180.2 0 182.8 0.404624 184.9 1.01156H219.3C221.4 0.404624 224 0 227.3 0C230.6 0 233.2 0.404624 235.3 1.01156H269.7C271.8 0.404624 274.4 0 277.7 0C281 0 283.6 0.404624 285.7 1.01156H320.1C322.2 0.404624 324.8 0 328.1 0C331.4 0 334 0.404624 336.1 1.01156H370.5C372.6 0.404624 375.2 0 378.5 0C381.8 0 384.4 0.404624 386.5 1.01156H420.9C423 0.404624 425.6 0 428.9 0C432.2 0 434.8 0.404624 436.9 1.01156H471.3C473.4 0.404624 476 0 479.3 0C482.6 0 485.2 0.404624 487.3 1.01156H521.7C523.8 0.404624 526.4 0 529.7 0C533 0 535.6 0.404624 537.7 1.01156H573.4C575.5 0.404624 578.1 0 581.4 0C584.7 0 587.3 0.404624 589.4 1.01156H623.8C625.9 0.404624 628.5 0 631.8 0C635.1 0 637.7 0.404624 639.8 1.01156H674.4C676.5 0.404624 679.1 0 682.4 0C685.7 0 688.3 0.404624 690.4 1.01156H724.8C726.9 0.404624 729.5 0 732.8 0C736.1 0 738.7 0.404624 740.8 1.01156H775.2C777.3 0.404624 779.9 0 783.2 0C786.5 0 789.1 0.404624 791.3 1.01156H825.7C827.8 0.404624 830.4 0 833.7 0C837 0 839.6 0.404624 841.7 1.01156H876.1C878.2 0.404624 880.8 0 884.1 0C887.4 0 890 0.404624 892.1 1.01156H926.5C928.6 0.404624 931.2 0 934.5 0C937.8 0 940.4 0.404624 942.5 1.01156H976.9C979 0.404624 981.6 0 984.9 0C988.2 0 990.8 0.404624 992.9 1.01156H1027.3C1029.4 0.404624 1032 0 1035.3 0C1038.6 0 1041.2 0.404624 1043.3 1.01156H1077.7C1079.8 0.404624 1082.4 0 1085.8 0C1089.1 0 1091.7 0.404624 1093.8 1.01156H1128.2C1130.3 0.404624 1132.9 0 1136.2 0C1139.5 0 1142.1 0.404624 1144.3 1.01156H1178.7C1180.8 0.404624 1183.4 0 1186.7 0C1190 0 1192.6 0.404624 1194.7 1.01156H1229.1C1231.2 0.404624 1233.8 0 1237.1 0C1240.4 0 1243 0.404624 1245.1 1.01156H1279.5C1281.6 0.404624 1284.2 0 1287.5 0C1290.8 0 1293.4 0.404624 1295.5 1.01156H1329.9C1332 0.404624 1334.6 0 1337.9 0C1341.2 0 1343.8 0.404624 1345.9 1.01156H1380.3C1382.4 0.404624 1385 0 1388.3 0C1391.6 0 1394.2 0.404624 1396.3 1.01156H1430.7C1432.8 0.404624 1435.4 0 1438.7 0C1442 0 1444.6 0.404624 1446.7 1.01156H1481.1C1483.2 0.404624 1485.8 0 1489.2 0C1492.5 0 1495.1 0.404624 1497.2 1.01156H1531.6C1533.7 0.404624 1536.3 0 1539.6 0C1542.9 0 1545.5 0.404624 1547.6 1.01156H1582C1584.1 0.404624 1586.7 0 1590.1 0C1593.4 0 1596 0.404624 1598.2 1.01156H1632.6C1634.7 0.404624 1637.3 0 1640.6 0C1643.9 0 1646.5 0.404624 1648.6 1.01156H1683C1685.1 0.404624 1687.7 0 1691 0C1694.3 0 1696.9 0.404624 1699 1.01156H1733.4C1735.5 0.404624 1738.1 0 1741.4 0C1744.7 0 1747.3 0.404624 1749.4 1.01156H1783.8C1785.9 0.404624 1788.5 0 1791.9 0C1795.2 0 1797.8 0.404624 1799.9 1.01156H1834.3C1836.4 0.404624 1839 0 1842.3 0C1845.6 0 1848.2 0.404624 1850.4 1.01156H1884.8C1886.9 0.404624 1889.5 0 1892.9 0C1896.2 0 1898.8 0.404624 1900.9 1.01156H1920.4Z" fill="#244594"/>
</g>
<g style="mix-blend-mode:screen" opacity="0.05">
<path d="M1920.4 1.01147V185.014C1873 223.049 1808.6 250.665 1721.4 251.879C1429.4 255.925 1393.4 181.069 1086.4 162.861C779.4 144.653 711.4 276.156 439.4 247.832C238.5 226.893 69.7 54.4219 21.4 1.01147H1920.4Z" fill="#244594"/>
</g>
<g style="mix-blend-mode:screen" opacity="0.05">
<path d="M1920.4 1.01156V123.107C1842.5 170.145 1677.1 186.835 1535.4 177.023C1360.4 164.884 1326.4 85.9827 1108.4 75.8671C890.4 65.7514 785.4 92.052 581.4 149.711C377.4 207.37 219.6 89.5231 198.4 69.7977C177.2 50.0723 169 29.3353 159.6 4.95665C159.1 3.64162 158.6 2.32659 158.1 1.01156H169.2C171.3 0.404624 173.9 0 177.2 0C180.5 0 183.1 0.404624 185.2 1.01156H219.6C221.7 0.404624 224.3 0 227.6 0C230.9 0 233.5 0.404624 235.6 1.01156H270C272.1 0.404624 274.7 0 278 0C281.3 0 283.9 0.404624 286 1.01156H320.4C322.5 0.404624 325.1 0 328.4 0C331.7 0 334.3 0.404624 336.4 1.01156H370.8C372.9 0.404624 375.5 0 378.8 0C382.1 0 384.7 0.404624 386.8 1.01156H421.2C423.3 0.404624 425.9 0 429.2 0C432.5 0 435.1 0.404624 437.2 1.01156H471.6C473.7 0.404624 476.3 0 479.6 0C482.9 0 485.5 0.404624 487.6 1.01156H522C524.1 0.404624 526.7 0 530 0C533.3 0 535.9 0.404624 538 1.01156H573.4C575.5 0.404624 578.1 0 581.4 0C584.7 0 587.3 0.404624 589.4 1.01156H623.8C625.9 0.404624 628.5 0 631.8 0C635.1 0 637.7 0.404624 639.8 1.01156H674.4C676.5 0.404624 679.1 0 682.4 0C685.7 0 688.3 0.404624 690.4 1.01156H724.8C726.9 0.404624 729.5 0 732.8 0C736.1 0 738.7 0.404624 740.8 1.01156H775.2C777.3 0.404624 779.9 0 783.2 0C786.5 0 789.1 0.404624 791.3 1.01156H825.7C827.8 0.404624 830.4 0 833.7 0C837 0 839.6 0.404624 841.7 1.01156H876.1C878.2 0.404624 880.8 0 884.1 0C887.4 0 890 0.404624 892.1 1.01156H926.5C928.6 0.404624 931.2 0 934.5 0C937.8 0 940.4 0.404624 942.5 1.01156H976.9C979 0.404624 981.6 0 984.9 0C988.2 0 990.8 0.404624 992.9 1.01156H1027.3C1029.4 0.404624 1032 0 1035.3 0C1038.6 0 1041.2 0.404624 1043.3 1.01156H1077.7C1079.8 0.404624 1082.4 0 1085.8 0C1089.1 0 1091.7 0.404624 1093.8 1.01156H1128.2C1130.3 0.404624 1132.9 0 1136.2 0C1139.5 0 1142.1 0.404624 1144.3 1.01156H1178.7C1180.8 0.404624 1183.4 0 1186.7 0C1190 0 1192.6 0.404624 1194.7 1.01156H1229.1C1231.2 0.404624 1233.8 0 1237.1 0C1240.4 0 1243 0.404624 1245.1 1.01156H1279.5C1281.6 0.404624 1284.2 0 1287.5 0C1290.8 0 1293.4 0.404624 1295.5 1.01156H1329.9C1332 0.404624 1334.6 0 1337.9 0C1341.2 0 1343.8 0.404624 1345.9 1.01156H1380.3C1382.4 0.404624 1385 0 1388.3 0C1391.6 0 1394.2 0.404624 1396.3 1.01156H1430.7C1432.8 0.404624 1435.4 0 1438.7 0C1442 0 1444.6 0.404624 1446.7 1.01156H1481.1C1483.2 0.404624 1485.8 0 1489.2 0C1492.5 0 1495.1 0.404624 1497.2 1.01156H1531.6C1533.7 0.404624 1536.3 0 1539.6 0C1542.9 0 1545.5 0.404624 1547.6 1.01156H1582C1584.1 0.404624 1586.7 0 1590.1 0C1593.4 0 1596 0.404624 1598.2 1.01156H1632.6C1634.7 0.404624 1637.3 0 1640.6 0C1643.9 0 1646.5 0.404624 1648.6 1.01156H1683C1685.1 0.404624 1687.7 0 1691 0C1694.3 0 1696.9 0.404624 1699 1.01156H1733.4C1735.5 0.404624 1738.1 0 1741.4 0C1744.7 0 1747.3 0.404624 1749.4 1.01156H1783.8C1785.9 0.404624 1788.5 0 1791.9 0C1795.2 0 1797.8 0.404624 1799.9 1.01156H1834.3C1836.4 0.404624 1839 0 1842.3 0C1845.6 0 1848.2 0.404624 1850.4 1.01156H1884.8C1886.9 0.404624 1889.5 0 1892.9 0C1896.2 0 1898.8 0.404624 1900.9 1.01156H1920.4Z" fill="#244594"/>
</g>
</g>
<defs>
<clipPath id="clip0">
<rect width="1920" height="350" fill="white"/>
</clipPath>
</defs>
</svg>
