<svg width="25" height="25" viewBox="0 0 25 25" fill="none" xmlns="http://www.w3.org/2000/svg">
<path d="M22.4782 7.14085C22.624 6.65648 22.4782 6.30127 21.7886 6.30127H19.5042C18.923 6.30127 18.6573 6.60856 18.5115 6.94606C18.5115 6.94606 17.35 9.77835 15.7042 11.6148C15.173 12.1492 14.9302 12.3179 14.6407 12.3179C14.4959 12.3179 14.2855 12.1492 14.2855 11.6648V7.14085C14.2855 6.5596 14.1177 6.30127 13.6334 6.30127H10.0438C9.68129 6.30127 9.46254 6.57002 9.46254 6.82627C9.46254 7.37627 10.2855 7.50335 10.3698 9.05335V12.4159C10.3698 13.1523 10.2375 13.2867 9.94587 13.2867C9.17192 13.2867 7.28858 10.444 6.17087 7.18981C5.95317 6.55752 5.73337 6.30231 5.15004 6.30231H2.86671C2.21358 6.30231 2.08337 6.6096 2.08337 6.9471C2.08337 7.55335 2.85733 10.5534 5.68858 14.5211C7.57608 17.2304 10.2334 18.6992 12.6542 18.6992C14.1052 18.6992 14.2844 18.3731 14.2844 17.8106V15.7627C14.2844 15.1106 14.423 14.9794 14.8823 14.9794C15.2198 14.9794 15.8011 15.1502 17.1563 16.4554C18.7042 18.0034 18.9605 18.6981 19.8302 18.6981H22.1136C22.7657 18.6981 23.0917 18.3721 22.9042 17.7284C22.699 17.0877 21.9594 16.1554 20.9782 15.0523C20.4448 14.4231 19.648 13.7461 19.4052 13.4075C19.0667 12.9711 19.1646 12.7784 19.4052 12.3909C19.4063 12.3919 22.1886 8.47314 22.4782 7.14085Z" fill="white"/>
</svg>
