<svg width="19" height="13" fill="none" xmlns="http://www.w3.org/2000/svg"><path d="M5.024.752c1.579 0 2.683.427 3.312 1.28.63.853.944 2.336.944 4.448 0 2.112-.315 3.595-.944 4.448-.63.853-1.733 1.28-3.312 1.28-1.568 0-2.667-.427-3.296-1.28-.63-.853-.944-2.336-.944-4.448 0-2.112.315-3.595.944-4.448.63-.853 1.728-1.28 3.296-1.28zm-.016 1.936c-.715 0-1.2.261-1.456.784-.245.512-.368 1.515-.368 3.008s.123 2.501.368 3.024c.256.512.741.768 1.456.768.736 0 1.232-.256 1.488-.768.256-.523.384-1.53.384-3.024 0-1.493-.128-2.496-.384-3.008-.256-.523-.752-.784-1.488-.784zm13.007 5.36h-2.769v2.672h-1.744V8.048h-2.768V6.32h2.752V3.632h1.76V6.32h2.769v1.728z" fill="#000"/></svg>