<svg width="25" height="25" fill="none" xmlns="http://www.w3.org/2000/svg"><g clip-path="url(#clip0)" fill="#000"><path d="M24.988 8.17c-.066-.639-.395-1.173-.902-1.466a1.771 1.771 0 00-1.252-.194c.129-1.203-.465-2.27-1.481-2.543a1.828 1.828 0 00-.474-.062c-.716 0-1.386.418-1.83 1.078-.442-.66-1.112-1.078-1.829-1.078-.16 0-.319.02-.473.062-1.016.273-1.609 1.34-1.48 2.543a1.778 1.778 0 00-1.252.194c-.508.293-.837.828-.902 1.467a2.68 2.68 0 00.366 1.599c.37.643.946 1.086 1.57 1.24a4.32 4.32 0 00-.257 1.446c0 .614.104 1.06.327 1.406.285.44.745.682 1.297.682.406 0 .81-.128 1.238-.263.456-.144.928-.293 1.396-.293.467 0 .94.149 1.396.293.428.135.833.263 1.238.263.489 0 1.624-.203 1.624-2.088 0-.504-.094-.99-.257-1.446.623-.153 1.199-.597 1.57-1.24.291-.502.421-1.07.367-1.6zm-5.406-2.018c.227-.847.906-1.4 1.517-1.236.612.164.923.983.697 1.829-.228.846-.907 1.4-1.518 1.235-.61-.163-.923-.982-.696-1.828zm-2.58-1.237c.613-.164 1.292.39 1.519 1.236.226.846-.085 1.665-.697 1.829-.61.163-1.291-.39-1.517-1.236-.227-.845.084-1.665.696-1.829zm-2.67 4.364c-.388-.672-.31-1.444.177-1.724.486-.28 1.193.037 1.581.71.389.67.31 1.443-.176 1.723-.487.28-1.195-.037-1.582-.71zm4.72 3.726c-1.81 0-3.276 1.563-3.276-.549s2.1-3.825 3.275-3.824c1.175 0 3.276 1.712 3.276 3.824s-1.466.549-3.276.549zm4.719-3.726c-.388.672-1.096.99-1.582.71-.486-.281-.564-1.053-.176-1.725.388-.672 1.095-.99 1.581-.71s.564 1.053.177 1.725zm-12.786 3.975a1.768 1.768 0 00-1.251-.194c.128-1.202-.465-2.27-1.482-2.542a1.828 1.828 0 00-.473-.063c-.716 0-1.386.419-1.83 1.08-.443-.661-1.113-1.08-1.83-1.08-.159 0-.318.021-.472.063-1.017.272-1.61 1.339-1.481 2.542a1.776 1.776 0 00-1.252.194c-.508.293-.836.828-.902 1.467-.054.53.075 1.097.366 1.599.37.643.946 1.086 1.57 1.24a4.36 4.36 0 00-.256 1.447c0 .614.104 1.061.327 1.406.285.44.746.682 1.297.682.407 0 .81-.127 1.238-.263.456-.144.929-.294 1.396-.294.468 0 .94.15 1.396.294.428.136.833.263 1.238.263.489 0 1.624-.204 1.624-2.088 0-.504-.094-.99-.257-1.446.623-.153 1.199-.597 1.57-1.24.29-.502.42-1.07.366-1.599-.066-.64-.394-1.175-.902-1.468zm-4.504-.552c.227-.846.906-1.4 1.518-1.236.611.164.923.983.696 1.83-.227.846-.906 1.399-1.518 1.235-.611-.163-.923-.982-.696-1.83zm-2.579-1.236c.612-.164 1.291.39 1.518 1.236.227.846-.085 1.665-.697 1.828-.61.164-1.29-.39-1.517-1.235-.227-.846.084-1.665.696-1.829zm-2.671 4.363c-.388-.67-.31-1.443.176-1.724.487-.28 1.194.037 1.582.71.388.671.31 1.443-.176 1.724-.487.28-1.195-.037-1.582-.71zm4.72 3.727c-1.81 0-3.276 1.562-3.276-.55 0-2.111 2.1-3.825 3.275-3.824 1.175 0 3.276 1.712 3.276 3.825 0 2.111-1.466.549-3.276.549zm4.719-3.727c-.388.673-1.096.99-1.582.71s-.564-1.052-.176-1.724c.388-.672 1.095-.99 1.581-.71s.565 1.053.177 1.724z"/></g><defs><clipPath id="clip0"><path fill="#fff" d="M0 0h25v25H0z"/></clipPath></defs></svg>