<svg width="25" height="25" fill="none" xmlns="http://www.w3.org/2000/svg"><path d="M12.499 7.685a4.817 4.817 0 100 9.633 4.817 4.817 0 000-9.633zm0 7.944a3.129 3.129 0 110-6.257 3.129 3.129 0 010 6.257zm5.007-6.999a1.123 1.123 0 100-2.246 1.123 1.123 0 000 2.246z" fill="#fff"/><path d="M21.389 6.366a4.796 4.796 0 00-2.743-2.742 6.88 6.88 0 00-2.277-.437c-1.003-.044-1.321-.057-3.865-.057-2.544 0-2.87 0-3.864.057a6.827 6.827 0 00-2.275.437 4.792 4.792 0 00-2.743 2.742 6.86 6.86 0 00-.437 2.277c-.044 1.002-.058 1.32-.058 3.864 0 2.544 0 2.868.058 3.865a6.87 6.87 0 00.437 2.278 4.802 4.802 0 002.744 2.742 6.86 6.86 0 002.276.469c1.003.043 1.32.057 3.864.057 2.544 0 2.87 0 3.865-.057a6.888 6.888 0 002.277-.437 4.804 4.804 0 002.743-2.743c.274-.729.42-1.498.436-2.277.045-1.002.058-1.32.058-3.864 0-2.545 0-2.868-.058-3.865a6.854 6.854 0 00-.439-2.31zm-1.27 9.929a5.252 5.252 0 01-.323 1.758 3.112 3.112 0 01-1.784 1.783 5.192 5.192 0 01-1.74.324c-.989.045-1.268.057-3.805.057-2.54 0-2.8 0-3.808-.057a5.165 5.165 0 01-1.738-.324 3.11 3.11 0 01-1.79-1.783 5.292 5.292 0 01-.325-1.738c-.045-.99-.055-1.269-.055-3.807 0-2.538 0-2.797.055-3.807a5.27 5.27 0 01.324-1.757A3.11 3.11 0 016.92 5.16a5.219 5.219 0 011.74-.324c.99-.045 1.268-.058 3.807-.058 2.538 0 2.799 0 3.806.058a5.167 5.167 0 011.74.324 3.116 3.116 0 011.783 1.783 5.29 5.29 0 01.324 1.738c.045.991.056 1.27.056 3.808 0 2.537 0 2.81-.045 3.806h-.011v-.001z" fill="#fff"/></svg>