<svg width="1920" height="249" viewBox="0 0 1920 249" fill="none" xmlns="http://www.w3.org/2000/svg">
<g clip-path="url(#clip0)">
<path d="M0 0V238.088V239.08V243.048C5.8 243.048 8.6 244.337 11.6 245.826C14.8 247.314 18.4 249 25.3 249C32.2 249 35.8 247.314 39 245.826C42 244.437 44.8 243.048 50.6 243.048C56.4 243.048 59.2 244.337 62.2 245.826C65.4 247.314 69 249 75.9 249C82.8 249 86.4 247.314 89.6 245.826C92.6 244.437 95.4 243.048 101.2 243.048C107 243.048 109.8 244.337 112.8 245.826C116 247.314 119.6 249 126.5 249C133.4 249 137 247.314 140.2 245.826C143.2 244.437 146 243.048 151.8 243.048C157.6 243.048 160.4 244.337 163.4 245.826C166.6 247.314 170.2 249 177.1 249C184 249 187.6 247.314 190.8 245.826C193.8 244.437 196.6 243.048 202.4 243.048C208.2 243.048 211 244.337 214 245.826C217.2 247.314 220.8 249 227.7 249C234.6 249 238.2 247.314 241.4 245.826C244.4 244.437 247.2 243.048 253 243.048C258.8 243.048 261.6 244.337 264.6 245.826C267.8 247.314 271.4 249 278.3 249C285.2 249 288.8 247.314 292 245.826C295 244.437 297.8 243.048 303.6 243.048C309.4 243.048 312.2 244.337 315.2 245.826C318.4 247.314 322 249 328.9 249C335.8 249 339.4 247.314 342.6 245.826C345.6 244.437 348.4 243.048 354.2 243.048C360 243.048 362.8 244.337 365.8 245.826C369 247.314 372.6 249 379.5 249C386.4 249 390 247.314 393.2 245.826C396.2 244.437 399 243.048 404.8 243.048C410.6 243.048 413.4 244.337 416.4 245.826C419.6 247.314 423.2 249 430.1 249C437 249 440.6 247.314 443.8 245.826C446.8 244.437 449.6 243.048 455.4 243.048C461.2 243.048 464 244.337 467 245.826C470.2 247.314 473.8 249 480.7 249C487.6 249 491.2 247.314 494.4 245.826C497.4 244.437 500.2 243.048 506 243.048C511.8 243.048 514.6 244.337 517.6 245.826C520.8 247.314 524.4 249 531.3 249C538.2 249 541.8 247.314 545 245.826C548 244.437 550.8 243.048 556.6 243.048C562.4 243.048 565.2 244.337 568.2 245.826C571.4 247.314 575 249 581.9 249C588.8 249 592.4 247.314 595.6 245.826C598.6 244.437 601.4 243.048 607.2 243.048C613 243.048 615.8 244.337 618.8 245.826C622 247.314 625.6 249 632.5 249C639.4 249 643 247.314 646.2 245.826C649.2 244.437 652 243.048 657.8 243.048C663.6 243.048 666.4 244.337 669.4 245.826C672.6 247.314 676.2 249 683.1 249C690 249 693.6 247.314 696.8 245.826C699.8 244.437 702.6 243.048 708.4 243.048C714.2 243.048 717 244.337 720 245.826C723.2 247.314 726.8 249 733.7 249C740.6 249 744.2 247.314 747.4 245.826C750.4 244.437 753.2 243.048 759 243.048C764.8 243.048 767.6 244.337 770.6 245.826C773.8 247.314 777.4 249 784.3 249C791.2 249 794.8 247.314 798 245.826C801 244.437 803.8 243.048 809.6 243.048C815.4 243.048 818.2 244.337 821.2 245.826C824.4 247.314 828 249 834.9 249C841.8 249 845.4 247.314 848.6 245.826C851.6 244.437 854.4 243.048 860.2 243.048C866 243.048 868.8 244.337 871.8 245.826C875 247.314 878.6 249 885.5 249C892.4 249 896 247.314 899.2 245.826C902.2 244.437 905 243.048 910.8 243.048C916.6 243.048 919.4 244.337 922.4 245.826C925.6 247.314 929.2 249 936.1 249C943 249 946.6 247.314 949.8 245.826C952.8 244.437 955.6 243.048 961.4 243.048C967.2 243.048 970 244.337 973 245.826C976.2 247.314 979.8 249 986.7 249C993.6 249 997.2 247.314 1000.4 245.826C1003.4 244.437 1006.2 243.048 1012 243.048C1017.8 243.048 1020.6 244.337 1023.6 245.826C1026.8 247.314 1030.4 249 1037.3 249C1044.2 249 1047.8 247.314 1051 245.826C1054 244.437 1056.8 243.048 1062.6 243.048C1068.4 243.048 1071.2 244.337 1074.2 245.826C1077.4 247.314 1081 249 1087.9 249C1094.8 249 1098.4 247.314 1101.6 245.826C1104.6 244.437 1107.4 243.048 1113.2 243.048C1119 243.048 1121.8 244.337 1124.8 245.826C1128 247.314 1131.6 249 1138.5 249C1145.4 249 1149 247.314 1152.2 245.826C1155.2 244.437 1158 243.048 1163.8 243.048C1169.6 243.048 1172.4 244.337 1175.4 245.826C1178.6 247.314 1182.2 249 1189.1 249C1196 249 1199.6 247.314 1202.8 245.826C1205.8 244.437 1208.6 243.048 1214.4 243.048C1220.2 243.048 1223 244.337 1226 245.826C1229.2 247.314 1232.8 249 1239.7 249C1246.6 249 1250.2 247.314 1253.4 245.826C1256.4 244.437 1259.2 243.048 1265 243.048C1270.8 243.048 1273.6 244.337 1276.6 245.826C1279.8 247.314 1283.4 249 1290.3 249C1297.2 249 1300.8 247.314 1304 245.826C1307 244.437 1309.8 243.048 1315.6 243.048C1321.4 243.048 1324.2 244.337 1327.2 245.826C1330.4 247.314 1334 249 1340.9 249C1347.8 249 1351.4 247.314 1354.6 245.826C1357.6 244.437 1360.4 243.048 1366.2 243.048C1372 243.048 1374.8 244.337 1377.8 245.826C1381 247.314 1384.6 249 1391.5 249C1398.4 249 1402 247.314 1405.2 245.826C1408.2 244.437 1411 243.048 1416.8 243.048C1422.6 243.048 1425.4 244.337 1428.4 245.826C1431.6 247.314 1435.2 249 1442.1 249C1449 249 1452.6 247.314 1455.8 245.826C1458.8 244.437 1461.6 243.048 1467.4 243.048C1473.2 243.048 1476 244.337 1479 245.826C1482.2 247.314 1485.8 249 1492.7 249C1499.6 249 1503.2 247.314 1506.4 245.826C1509.4 244.437 1512.2 243.048 1518 243.048C1523.8 243.048 1526.6 244.337 1529.6 245.826C1532.8 247.314 1536.4 249 1543.3 249C1550.2 249 1553.8 247.314 1557 245.826C1560 244.437 1562.8 243.048 1568.6 243.048C1574.4 243.048 1577.2 244.337 1580.2 245.826C1583.4 247.314 1587 249 1593.9 249C1600.8 249 1604.4 247.314 1607.6 245.826C1610.6 244.437 1613.4 243.048 1619.2 243.048C1625 243.048 1627.8 244.337 1630.8 245.826C1634 247.314 1637.6 249 1644.5 249C1651.4 249 1655 247.314 1658.2 245.826C1661.2 244.437 1664 243.048 1669.8 243.048C1675.6 243.048 1678.4 244.337 1681.4 245.826C1684.6 247.314 1688.2 249 1695.1 249C1702 249 1705.6 247.314 1708.8 245.826C1711.8 244.437 1714.6 243.048 1720.4 243.048C1726.2 243.048 1729 244.337 1732 245.826C1735.2 247.314 1738.8 249 1745.7 249C1752.6 249 1756.2 247.314 1759.4 245.826C1762.4 244.437 1765.2 243.048 1771 243.048C1776.8 243.048 1779.6 244.337 1782.6 245.826C1785.8 247.314 1789.4 249 1796.3 249C1803.2 249 1806.8 247.314 1810 245.826C1813 244.437 1815.8 243.048 1821.6 243.048C1827.4 243.048 1830.2 244.337 1833.2 245.826C1836.4 247.314 1840 249 1846.9 249C1853.8 249 1857.4 247.314 1860.6 245.826C1863.6 244.437 1866.4 243.048 1872.2 243.048C1878 243.048 1880.8 244.337 1883.8 245.826C1887 247.314 1890.6 249 1897.5 249C1904.4 249 1908 247.314 1911.2 245.826C1914.2 244.437 1917 243.048 1922.8 243.048V239.08V238.088V0H0Z" fill="#244594"/>
<g style="mix-blend-mode:screen" opacity="0.075">
<path d="M1920 0V190.272C1837.5 233.624 1652.7 212.89 1469 208.327C1229 202.375 1289 124.996 753 201.382C401.5 251.48 139.1 166.761 0 102.477V0H1920Z" fill="#223F99"/>
</g>
<g style="mix-blend-mode:screen" opacity="0.06">
<path d="M1920 0V135.908C1857 171.622 1808.2 178.367 1721 179.558C1429 183.526 1393 110.116 1086 92.259C779 74.4024 709 213.287 437 185.51C236.1 164.975 85.7 52.3793 37.5 0H1920Z" fill="#223F99"/>
</g>
<g style="mix-blend-mode:screen" opacity="0.065">
<path d="M1920 0V75.3944C1845.5 158.725 1695.2 143.051 1553.5 133.428C1378.5 121.524 1326 56.5458 1108 46.6255C890 36.7052 785 62.498 581 119.044C377 175.59 241 85.8108 241 85.8108C241 85.8108 166.5 46.6255 148.8 0H1920Z" fill="#223F99"/>
</g>
</g>
<defs>
<clipPath id="clip0">
<rect width="1920" height="249" fill="white"/>
</clipPath>
</defs>
</svg>
