<svg width="19" height="13" viewBox="0 0 19 13" fill="none" xmlns="http://www.w3.org/2000/svg">
<path d="M5.024 0.752C6.60267 0.752 7.70667 1.17867 8.336 2.032C8.96533 2.88533 9.28 4.368 9.28 6.48C9.28 8.592 8.96533 10.0747 8.336 10.928C7.70667 11.7813 6.60267 12.208 5.024 12.208C3.456 12.208 2.35733 11.7813 1.728 10.928C1.09867 10.0747 0.784 8.592 0.784 6.48C0.784 4.368 1.09867 2.88533 1.728 2.032C2.35733 1.17867 3.456 0.752 5.024 0.752ZM5.008 2.688C4.29333 2.688 3.808 2.94933 3.552 3.472C3.30667 3.984 3.184 4.98667 3.184 6.48C3.184 7.97333 3.30667 8.98133 3.552 9.504C3.808 10.016 4.29333 10.272 5.008 10.272C5.744 10.272 6.24 10.016 6.496 9.504C6.752 8.98133 6.88 7.97333 6.88 6.48C6.88 4.98667 6.752 3.984 6.496 3.472C6.24 2.94933 5.744 2.688 5.008 2.688ZM18.0145 8.048H15.2465V10.72H13.5025V8.048H10.7345V6.32H13.4865V3.632H15.2465V6.32H18.0145V8.048Z" fill="black"/>
</svg>
