<svg width="25" height="25" viewBox="0 0 25 25" fill="none" xmlns="http://www.w3.org/2000/svg">
<g clip-path="url(#clip0)">
<path d="M24.9877 8.17058C24.9218 7.53118 24.5928 6.99666 24.0855 6.70388C23.8208 6.55132 23.5151 6.47056 23.2016 6.47056C23.0787 6.47056 22.9559 6.48626 22.8342 6.50982C22.9629 5.30702 22.3692 4.23967 21.3526 3.96708C21.1992 3.92585 21.0394 3.90454 20.8792 3.90454C20.1627 3.90454 19.493 4.32324 19.0499 4.98339C18.6066 4.32324 17.9366 3.90454 17.2204 3.90454C17.0605 3.90454 16.9012 3.92557 16.7475 3.96708C15.7309 4.23967 15.1381 5.30645 15.2668 6.50982C15.1443 6.48626 15.0223 6.47056 14.8983 6.47056C14.5856 6.47056 14.2797 6.55188 14.0149 6.70388C13.5071 6.9975 13.1784 7.53202 13.113 8.17058C13.0586 8.69976 13.1879 9.26765 13.479 9.76964C13.8492 10.4127 14.4252 10.8558 15.0484 11.0095C14.8865 11.466 14.7918 11.952 14.7918 12.456C14.7918 13.0704 14.8961 13.5169 15.1187 13.8618C15.404 14.3018 15.8639 14.5444 16.4161 14.5444C16.8221 14.5444 17.2251 14.4165 17.6536 14.2811C18.1099 14.1369 18.5822 13.988 19.0497 13.988C19.5174 13.988 19.9903 14.1369 20.4457 14.2811C20.8736 14.4165 21.2786 14.5444 21.6841 14.5444C22.1729 14.5444 23.3076 14.3408 23.3076 12.4562C23.3076 11.9517 23.2136 11.4663 23.0512 11.0097C23.6735 10.8566 24.2498 10.413 24.6203 9.77048C24.912 9.26765 25.0424 8.69976 24.9877 8.17058ZM19.5819 6.1517C19.8091 5.30533 20.4883 4.75231 21.0994 4.91608C21.711 5.07986 22.0223 5.89874 21.7957 6.74483C21.568 7.59119 20.8893 8.14422 20.2777 7.98044C19.6672 7.81666 19.3551 6.99806 19.5819 6.1517ZM17.0027 4.91524C17.6149 4.75147 18.2942 5.30505 18.5208 6.15086C18.7473 6.99722 18.4355 7.8161 17.8241 7.97988C17.2131 8.14337 16.533 7.58979 16.307 6.74426C16.0795 5.89874 16.3911 5.07902 17.0027 4.91524ZM14.3316 9.27859C13.9437 8.60722 14.022 7.83489 14.5088 7.55473C14.9954 7.27429 15.7023 7.59175 16.0902 8.26424C16.4786 8.93561 16.3998 9.70766 15.9135 9.9881C15.4272 10.2683 14.7194 9.9508 14.3316 9.27859ZM19.0511 13.0048C17.2422 13.0048 15.7758 14.5679 15.7758 12.456C15.7758 10.344 17.8766 8.63078 19.0511 8.63162C20.2255 8.63246 22.3266 10.344 22.3266 12.456C22.3263 14.5679 20.8607 13.0048 19.0511 13.0048ZM23.7708 9.27859C23.383 9.95052 22.6752 10.2683 22.1886 9.9881C21.7035 9.70766 21.6252 8.93617 22.0128 8.26424C22.4006 7.59203 23.1079 7.27429 23.5942 7.55473C24.0802 7.83489 24.1584 8.6075 23.7708 9.27859Z" fill="black"/>
<path d="M10.9851 13.2544C10.7206 13.1015 10.4144 13.0211 10.1014 13.0211C9.97828 13.0211 9.85573 13.0368 9.73374 13.0603C9.86218 11.8578 9.26877 10.7902 8.25218 10.5176C8.09878 10.4764 7.93893 10.4553 7.77908 10.4553C7.06256 10.4553 6.39287 10.874 5.9495 11.5342C5.50585 10.874 4.83644 10.4553 4.11992 10.4553C3.96007 10.4553 3.80106 10.4764 3.64682 10.5176C2.63023 10.7902 2.03738 11.857 2.16582 13.0603C2.04383 13.0368 1.92128 13.0211 1.7976 13.0211C1.48463 13.0211 1.17895 13.1021 0.91394 13.2544C0.406346 13.5474 0.0776717 14.0822 0.012049 14.7208C-0.0423562 15.2505 0.0872065 15.8184 0.378302 16.3199C0.748481 16.9635 1.32422 17.4063 1.94708 17.5597C1.78667 18.0165 1.69216 18.5025 1.69216 19.0067C1.69216 19.6215 1.79648 20.0685 2.01915 20.4129C2.30408 20.8529 2.76484 21.0954 3.31618 21.0954C3.72253 21.0954 4.12581 20.9676 4.55432 20.8321C5.01003 20.688 5.48257 20.5385 5.95034 20.5385C6.41811 20.5385 6.89037 20.688 7.34609 20.8321C7.77403 20.9676 8.17871 21.0954 8.58422 21.0954C9.07303 21.0954 10.2082 20.8913 10.2082 19.007C10.2082 18.5028 10.114 18.0174 9.95136 17.5614C10.5737 17.4077 11.15 16.9637 11.5207 16.3215C11.811 15.8187 11.9414 15.2514 11.8869 14.7225C11.8213 14.0822 11.4927 13.5474 10.9851 13.2544ZM6.48093 12.7019C6.70837 11.8556 7.38731 11.3025 7.99867 11.4663C8.61002 11.6301 8.92187 12.449 8.69499 13.2953C8.46756 14.1417 7.78862 14.6947 7.17726 14.5309C6.5659 14.3677 6.25406 13.5488 6.48093 12.7019ZM3.90202 11.466C4.51393 11.3022 5.19316 11.8558 5.41975 12.7016C5.64663 13.5477 5.3345 14.3666 4.72342 14.5304C4.11206 14.6942 3.43228 14.1406 3.20569 13.295C2.97881 12.4492 3.2901 11.6295 3.90202 11.466ZM1.23056 15.8294C0.842989 15.1583 0.920671 14.3857 1.40723 14.1055C1.89379 13.8254 2.60106 14.1425 2.98863 14.8147C3.37675 15.4861 3.29851 16.2584 2.81251 16.5386C2.32623 16.8188 1.6184 16.5016 1.23056 15.8294ZM5.95034 19.5556C4.14095 19.5556 2.6751 21.1182 2.6751 19.0067C2.6751 16.8945 4.77586 15.1813 5.95034 15.1818C7.12482 15.1824 9.22558 16.8942 9.22558 19.0067C9.22558 21.1182 7.75973 19.5556 5.95034 19.5556ZM10.6698 15.8294C10.282 16.5016 9.57417 16.8188 9.08789 16.5386C8.60245 16.2584 8.52393 15.487 8.91177 14.8147C9.29962 14.1425 10.0069 13.8254 10.4932 14.1055C10.9789 14.3854 11.0577 15.1583 10.6698 15.8294Z" fill="black"/>
</g>
<defs>
<clipPath id="clip0">
<rect width="25" height="25" fill="white"/>
</clipPath>
</defs>
</svg>
