<svg width="10" height="15" viewBox="0 0 10 15" fill="none" xmlns="http://www.w3.org/2000/svg">
<path d="M9.8166 2.55893L4.69112 7.5L9.8166 12.4411C9.93887 12.5589 10 12.6985 10 12.8598C10 13.0211 9.93887 13.1607 9.8166 13.2785L8.21429 14.8232C8.09202 14.9411 7.94723 15 7.77992 15C7.61261 15 7.46782 14.9411 7.34556 14.8232L0.183398 7.91873C0.0611326 7.80087 0 7.66129 0 7.5C0 7.33871 0.0611326 7.19913 0.183398 7.08127L7.34556 0.176799C7.46782 0.058933 7.61261 0 7.77992 0C7.94723 0 8.09202 0.058933 8.21429 0.176799L9.8166 1.72146C9.93887 1.83933 10 1.97891 10 2.1402C10 2.30149 9.93887 2.44107 9.8166 2.55893Z" fill="#BDBDBD"/>
</svg>
