<svg width="46" height="46" viewBox="0 0 46 46" fill="none" xmlns="http://www.w3.org/2000/svg">
<rect x="0.5" y="0.5" width="45" height="45" rx="1" fill="white" stroke="#BDBDBD"/>
<path d="M27.8166 18.5589L22.6911 23.5L27.8166 28.4411C27.9389 28.5589 28 28.6985 28 28.8598C28 29.0211 27.9389 29.1607 27.8166 29.2785L26.2143 30.8232C26.092 30.9411 25.9472 31 25.7799 31C25.6126 31 25.4678 30.9411 25.3456 30.8232L18.1834 23.9187C18.0611 23.8009 18 23.6613 18 23.5C18 23.3387 18.0611 23.1991 18.1834 23.0813L25.3456 16.1768C25.4678 16.0589 25.6126 16 25.7799 16C25.9472 16 26.092 16.0589 26.2143 16.1768L27.8166 17.7215C27.9389 17.8393 28 17.9789 28 18.1402C28 18.3015 27.9389 18.4411 27.8166 18.5589Z" fill="#E5E5E5"/>
</svg>
