<svg width="48" height="48" viewBox="0 0 48 48" fill="none" xmlns="http://www.w3.org/2000/svg">
<rect x="0.5" y="-0.5" width="47" height="47" rx="2" transform="matrix(-1 0 0 1 48 1)" fill="white" stroke="#BDBDBD"/>
<path d="M28.8166 19.5589L23.6911 24.5L28.8166 29.4411C28.9389 29.5589 29 29.6985 29 29.8598C29 30.0211 28.9389 30.1607 28.8166 30.2785L27.2143 31.8232C27.092 31.9411 26.9472 32 26.7799 32C26.6126 32 26.4678 31.9411 26.3456 31.8232L19.1834 24.9187C19.0611 24.8009 19 24.6613 19 24.5C19 24.3387 19.0611 24.1991 19.1834 24.0813L26.3456 17.1768C26.4678 17.0589 26.6126 17 26.7799 17C26.9472 17 27.092 17.0589 27.2143 17.1768L28.8166 18.7215C28.9389 18.8393 29 18.9789 29 19.1402C29 19.3015 28.9389 19.4411 28.8166 19.5589Z" fill="#BDBDBD"/>
</svg>
