<svg width="25" height="25" viewBox="0 0 25 25" fill="none" xmlns="http://www.w3.org/2000/svg">
<path d="M20.8333 3.125H4.16667C3.8904 3.125 3.62545 3.23475 3.4301 3.4301C3.23475 3.62545 3.125 3.8904 3.125 4.16667V20.8333C3.125 21.1096 3.23475 21.3746 3.4301 21.5699C3.62545 21.7653 3.8904 21.875 4.16667 21.875H13.1406V14.625H10.7052V11.7865H13.1406V9.70312C13.1406 7.28125 14.6198 5.96146 16.7865 5.96146C17.5146 5.95937 18.2437 5.99687 18.9687 6.07292V8.59375H17.474C16.299 8.59375 16.0698 9.15417 16.0698 9.97396V11.7812H18.8792L18.5146 14.6198H16.0687V21.875H20.8333C21.1096 21.875 21.3746 21.7653 21.5699 21.5699C21.7653 21.3746 21.875 21.1096 21.875 20.8333V4.16667C21.875 3.8904 21.7653 3.62545 21.5699 3.4301C21.3746 3.23475 21.1096 3.125 20.8333 3.125Z" fill="white"/>
</svg>
