<svg width="25" height="25" viewBox="0 0 25 25" fill="none" xmlns="http://www.w3.org/2000/svg">
<path d="M12.4989 7.68457C11.2215 7.68457 9.99632 8.19204 9.09302 9.09534C8.18972 9.99864 7.68225 11.2238 7.68225 12.5012C7.68225 13.7787 8.18972 15.0038 9.09302 15.9071C9.99632 16.8104 11.2215 17.3179 12.4989 17.3179C13.7764 17.3179 15.0015 16.8104 15.9048 15.9071C16.8081 15.0038 17.3156 13.7787 17.3156 12.5012C17.3156 11.2238 16.8081 9.99864 15.9048 9.09534C15.0015 8.19204 13.7764 7.68457 12.4989 7.68457ZM12.4989 15.6294C11.669 15.6294 10.8731 15.2997 10.2863 14.7128C9.69943 14.126 9.36975 13.3301 9.36975 12.5002C9.36975 11.6703 9.69943 10.8744 10.2863 10.2875C10.8731 9.70071 11.669 9.37103 12.4989 9.37103C13.3288 9.37103 14.1247 9.70071 14.7116 10.2875C15.2984 10.8744 15.6281 11.6703 15.6281 12.5002C15.6281 13.3301 15.2984 14.126 14.7116 14.7128C14.1247 15.2997 13.3288 15.6294 12.4989 15.6294Z" fill="white"/>
<path d="M17.5062 8.63011C18.1264 8.63011 18.6291 8.12736 18.6291 7.50719C18.6291 6.88702 18.1264 6.38428 17.5062 6.38428C16.886 6.38428 16.3833 6.88702 16.3833 7.50719C16.3833 8.12736 16.886 8.63011 17.5062 8.63011Z" fill="white"/>
<path d="M21.3885 6.36579C21.1474 5.74306 20.7789 5.17754 20.3066 4.70543C19.8343 4.23332 19.2686 3.86503 18.6458 3.62412C17.917 3.35053 17.1471 3.2026 16.3687 3.18662C15.3656 3.14287 15.0479 3.13037 12.5042 3.13037C9.96041 3.13037 9.63437 3.13037 8.63958 3.18662C7.86186 3.20178 7.09245 3.34975 6.36458 3.62412C5.74159 3.86475 5.17579 4.23294 4.70346 4.70509C4.23114 5.17723 3.86273 5.7429 3.62187 6.36579C3.34823 7.09455 3.20063 7.86458 3.18541 8.64287C3.14062 9.64495 3.12708 9.96266 3.12708 12.5075C3.12708 15.0512 3.12708 15.3752 3.18541 16.372C3.20103 17.1512 3.34791 17.92 3.62187 18.6502C3.86341 19.2728 4.23218 19.8383 4.70461 20.3103C5.17705 20.7824 5.74277 21.1508 6.36562 21.3918C7.09211 21.6764 7.86184 21.8349 8.64166 21.8606C9.64478 21.9043 9.96249 21.9179 12.5062 21.9179C15.05 21.9179 15.376 21.9179 16.3708 21.8606C17.1491 21.8448 17.919 21.6972 18.6479 21.4241C19.2706 21.1827 19.8361 20.814 20.3083 20.3418C20.7805 19.8696 21.1491 19.3041 21.3906 18.6814C21.6646 17.9522 21.8115 17.1835 21.8271 16.4043C21.8719 15.4022 21.8854 15.0845 21.8854 12.5397C21.8854 9.99496 21.8854 9.67204 21.8271 8.67516C21.815 7.88586 21.6666 7.10459 21.3885 6.36579ZM20.1198 16.295C20.1131 16.8953 20.0035 17.49 19.7958 18.0533C19.6394 18.4584 19.3999 18.8262 19.0928 19.1332C18.7856 19.4401 18.4177 19.6794 18.0125 19.8356C17.4554 20.0423 16.867 20.1519 16.2729 20.1595C15.2833 20.2054 15.0042 20.2168 12.4667 20.2168C9.92708 20.2168 9.6677 20.2168 8.65937 20.1595C8.06554 20.1523 7.47741 20.0427 6.92083 19.8356C6.51425 19.6804 6.14479 19.4415 5.83634 19.1345C5.52789 18.8275 5.28732 18.4591 5.1302 18.0533C4.92546 17.496 4.81594 16.9083 4.80624 16.3147C4.76145 15.3252 4.75103 15.046 4.75103 12.5085C4.75103 9.96995 4.75103 9.71058 4.80624 8.7012C4.81297 8.10123 4.92255 7.50685 5.1302 6.94391C5.44791 6.12204 6.09895 5.47516 6.92083 5.16058C7.47769 4.95448 8.06564 4.84492 8.65937 4.83662C9.64999 4.79183 9.92812 4.77933 12.4667 4.77933C15.0052 4.77933 15.2656 4.77933 16.2729 4.83662C16.8671 4.84377 17.4556 4.95336 18.0125 5.16058C18.4176 5.31711 18.7856 5.55662 19.0927 5.86374C19.3998 6.17085 19.6393 6.53878 19.7958 6.94391C20.0006 7.50115 20.1101 8.08887 20.1198 8.68245C20.1646 9.67308 20.176 9.9512 20.176 12.4897C20.176 15.0272 20.176 15.3002 20.1312 16.296H20.1198V16.295Z" fill="white"/>
</svg>
