<svg width="25" height="25" viewBox="0 0 25 25" fill="none" xmlns="http://www.w3.org/2000/svg">
<path d="M16.1458 7.81242L19.7917 4.16659M21.875 2.08325L19.7917 4.16659L21.875 2.08325ZM11.8646 12.0937C12.4025 12.6244 12.83 13.2562 13.1227 13.9528C13.4153 14.6494 13.5673 15.3971 13.5698 16.1527C13.5724 16.9083 13.4254 17.6569 13.1374 18.3554C12.8494 19.054 12.4261 19.6887 11.8918 20.223C11.3575 20.7573 10.7228 21.1806 10.0243 21.4686C9.32572 21.7566 8.57709 21.9035 7.8215 21.901C7.06591 21.8985 6.31829 21.7465 5.62167 21.4538C4.92505 21.1612 4.29321 20.7336 3.76251 20.1958C2.7189 19.1152 2.14143 17.668 2.15448 16.1658C2.16754 14.6637 2.77007 13.2267 3.8323 12.1645C4.89453 11.1023 6.33148 10.4997 7.83365 10.4867C9.33582 10.4736 10.783 11.0511 11.8636 12.0947L11.8646 12.0937ZM11.8646 12.0937L16.1458 7.81242L11.8646 12.0937ZM16.1458 7.81242L19.2708 10.9374L22.9167 7.29159L19.7917 4.16659L16.1458 7.81242Z" stroke="black" stroke-width="2" stroke-linecap="round" stroke-linejoin="round"/>
</svg>
